<?xml version="1.0" encoding="utf-8"?>
<!-- Generator: Adobe Illustrator 22.1.0, SVG Export Plug-In . SVG Version: 6.00 Build 0)  -->
<svg version="1.1" id="Layer_1" xmlns="http://www.w3.org/2000/svg" xmlns:xlink="http://www.w3.org/1999/xlink" x="0px" y="0px"
	 viewBox="0 0 1920 1080" style="enable-background:new 0 0 1920 1080;" xml:space="preserve">
<style type="text/css">
	.st0{fill:#FFFFFF;}
	.st1{fill:#061D32;}
	.st2{fill:#A9DCD6;}
</style>
<g>
	<g>
		<path class="st0" d="M802.7,499.3c-7.9-2.4-14.2-5.7-18.9-10c-2.2-1.8-3.3-4.2-3.3-7.1c0-2.1,0.6-3.8,1.7-5.3
			c1.1-1.4,2.5-2.2,4.1-2.2c1.6,0,3.6,0.7,5.9,2.2c10.2,7.6,21.9,11.4,35,11.4c9.2,0,16.3-1.7,21.2-5.2c4.9-3.4,7.4-8.4,7.4-14.8
			c0-5.1-2.3-8.8-6.9-11.4c-4.6-2.5-12-4.9-22.1-7.2c-9.7-2.1-17.6-4.4-23.8-7.1c-6.2-2.6-11.1-6.2-14.6-10.8
			c-3.5-4.5-5.3-10.3-5.3-17.3c0-7,1.9-13.2,5.8-18.7c3.8-5.5,9.2-9.7,16.1-12.8c6.9-3,14.8-4.6,23.6-4.6c8.2,0,15.7,1.1,22.6,3.4
			c6.9,2.3,12.8,5.7,17.6,10.2c2.3,2,3.4,4.3,3.4,7.1c0,2-0.6,3.7-1.8,5.2c-1.2,1.5-2.6,2.2-4.2,2.2c-1.5,0-3.4-0.7-5.7-2.2
			c-5.3-4-10.3-6.9-14.9-8.7c-4.7-1.8-10.3-2.7-16.8-2.7c-8.9,0-15.7,1.8-20.7,5.4c-4.9,3.6-7.4,8.6-7.4,15.1
			c0,5.5,2.2,9.7,6.5,12.5c4.4,2.8,11.4,5.4,21,7.7c10.1,2.3,18.3,4.7,24.6,7.2c6.3,2.5,11.3,5.9,15,10.2c3.7,4.3,5.6,9.9,5.6,16.6
			c0,6.9-1.9,13-5.8,18.4c-3.9,5.3-9.3,9.5-16.2,12.4c-7,2.9-15,4.4-24,4.4C818.8,502.9,810.5,501.7,802.7,499.3z"/>
		<path class="st0" d="M894.3,396c-2-1.8-2.9-4.3-2.9-7.2c0-3,1-5.4,2.9-7.2c2-1.8,4.6-2.7,7.9-2.7c3.2,0,5.8,0.9,7.8,2.7
			c2,1.8,3,4.2,3,7.2c0,3-1,5.4-2.9,7.2c-2,1.8-4.6,2.8-7.9,2.8C898.9,398.8,896.2,397.9,894.3,396z M895.9,500.3
			c-1.7-1.4-2.5-3.4-2.5-6.2v-70c0-2.8,0.8-4.9,2.5-6.3c1.7-1.4,3.8-2.2,6.3-2.2c2.5,0,4.6,0.7,6.2,2.2c1.6,1.4,2.4,3.5,2.4,6.3v70
			c0,2.8-0.8,4.8-2.4,6.2c-1.6,1.4-3.7,2.1-6.2,2.1C899.7,502.4,897.6,501.7,895.9,500.3z"/>
		<path class="st0" d="M1060,449.3v44.8c0,2.6-0.8,4.7-2.4,6.1s-3.7,2.2-6.4,2.2c-2.5,0-4.6-0.7-6.2-2.2c-1.6-1.4-2.4-3.5-2.4-6.1
			v-44.6c0-7-1.3-12.1-3.8-15.3c-2.5-3.2-6.5-4.7-11.9-4.7c-6.3,0-11.3,2.2-15,6.5c-3.7,4.3-5.5,10.2-5.5,17.7v40.5
			c0,2.6-0.8,4.7-2.4,6.1c-1.6,1.4-3.7,2.2-6.4,2.2c-2.5,0-4.6-0.7-6.2-2.2c-1.6-1.4-2.4-3.5-2.4-6.1v-44.6c0-7-1.3-12.1-3.8-15.3
			c-2.5-3.2-6.5-4.7-11.9-4.7c-6.3,0-11.4,2.2-15.1,6.5c-3.7,4.3-5.6,10.2-5.6,17.7v40.5c0,2.6-0.8,4.7-2.4,6.1
			c-1.6,1.4-3.7,2.2-6.2,2.2c-2.5,0-4.6-0.7-6.3-2.2c-1.7-1.4-2.5-3.5-2.5-6.1V424c0-2.5,0.9-4.5,2.6-6c1.7-1.5,3.8-2.2,6.2-2.2
			s4.4,0.7,5.9,2.2c1.6,1.4,2.3,3.4,2.3,5.9v6.4c2.5-4.8,6-8.5,10.5-11c4.5-2.5,9.7-3.8,15.5-3.8c6.4,0,11.7,1.3,15.9,4
			c4.2,2.6,7.3,6.7,9.4,12.2c2.5-4.9,6.3-8.9,11.2-11.8c4.9-2.9,10.6-4.4,16.9-4.4C1050.5,415.3,1060,426.7,1060,449.3z"/>
		<path class="st0" d="M1148.3,420.9c5.7,3.7,10.1,8.9,13.3,15.5c3.2,6.7,4.7,14.4,4.7,23.1c0,8.6-1.6,16.2-4.7,22.8
			c-3.1,6.6-7.5,11.6-13.2,15.2c-5.7,3.6-12.2,5.3-19.6,5.3c-6.3,0-11.9-1.4-16.7-4.1c-4.8-2.7-8.5-6.6-11-11.6v38.4
			c0,2.4-0.8,4.3-2.3,5.8c-1.6,1.4-3.6,2.2-6.1,2.2c-2.6,0-4.8-0.7-6.5-2.2c-1.7-1.5-2.5-3.5-2.5-6v-101c0-2.5,0.8-4.6,2.4-6.1
			c1.6-1.6,3.7-2.3,6.4-2.3c2.5,0,4.6,0.8,6.2,2.3c1.6,1.6,2.4,3.6,2.4,6.1v7.1c2.5-5.1,6.2-9,11-11.7c4.8-2.8,10.4-4.1,16.7-4.1
			C1136.1,415.3,1142.6,417.2,1148.3,420.9z M1142.4,481.3c4.1-5.1,6.2-12.4,6.2-21.8c0-9.5-2.1-17-6.3-22.2
			c-4.2-5.3-10-7.9-17.5-7.9c-7.6,0-13.4,2.6-17.5,7.8c-4.1,5.2-6.1,12.5-6.1,22.1c0,9.5,2,16.9,6.1,22.1c4.1,5.2,9.9,7.8,17.5,7.8
			S1138.2,486.4,1142.4,481.3z"/>
		<path class="st0" d="M1188.1,500.3c-1.7-1.4-2.5-3.4-2.5-6.2V387.6c0-2.8,0.8-4.9,2.5-6.3c1.7-1.4,3.8-2.2,6.3-2.2
			c2.5,0,4.6,0.7,6.2,2.2c1.6,1.4,2.4,3.5,2.4,6.3v106.5c0,2.8-0.8,4.8-2.4,6.2c-1.6,1.4-3.7,2.1-6.2,2.1
			C1191.9,502.4,1189.8,501.7,1188.1,500.3z"/>
		<path class="st0" d="M1290.2,417.1c1.3-0.8,2.7-1.2,4.2-1.2c2.2,0,4.1,0.7,5.8,2.2c1.7,1.5,2.5,3.3,2.5,5.3c0,1.1-0.2,2.2-0.7,3.3
			l-47.9,101.7c-0.7,1.6-1.7,2.8-3,3.7c-1.3,0.9-2.7,1.3-4.2,1.3c-2.1,0-3.9-0.7-5.6-2.1c-1.7-1.4-2.5-3.1-2.5-5.2
			c0-0.9,0.3-2.1,0.9-3.4l11.9-25.3l-33.3-70.7c-0.5-0.9-0.7-2-0.7-3.1c0-2.2,0.9-4,2.8-5.5c1.8-1.5,3.9-2.2,6.2-2.2
			c3.4,0,5.9,1.6,7.4,4.8l26.7,59.3l26.5-59.1C1287.8,419.1,1288.8,417.9,1290.2,417.1z"/>
		<path class="st0" d="M1461.2,439c1.3,1.3,2,3,2,5.2v40.3c0,3.9-0.5,6.7-1.6,8.4c-1.1,1.7-3.2,3.1-6.5,4.1
			c-4.6,1.8-10.1,3.3-16.4,4.3c-6.3,1-12.6,1.6-18.8,1.6c-12.3,0-22.9-2.5-31.9-7.4c-9-4.9-15.8-12.1-20.5-21.4
			c-4.7-9.3-7.1-20.5-7.1-33.4c0-12.8,2.4-23.8,7.1-33.1c4.7-9.3,11.5-16.5,20.3-21.5c8.8-5,19.1-7.5,30.9-7.5
			c8,0,15.5,1.2,22.3,3.5c6.8,2.4,12.7,5.8,17.5,10.3c2.3,1.8,3.4,4.1,3.4,6.9c0,2.1-0.6,3.8-1.7,5.3c-1.2,1.4-2.5,2.2-4.1,2.2
			c-1,0-2-0.2-2.8-0.5c-0.8-0.3-1.8-0.9-3.1-1.7c-5.6-4.1-10.7-7-15.3-8.7c-4.6-1.7-9.9-2.5-15.9-2.5c-13.1,0-23.1,4.1-30,12.2
			c-6.9,8.1-10.3,19.9-10.3,35.3c0,15.7,3.5,27.7,10.6,35.8c7.1,8.1,17.4,12.2,31.1,12.2c9.2,0,18-1.4,26.5-4.1v-34h-22.6
			c-2.3,0-4.1-0.6-5.4-1.8c-1.3-1.2-2-2.8-2-4.9c0-2.1,0.7-3.7,2-4.9c1.3-1.2,3.1-1.8,5.4-1.8h31.5
			C1458.1,437.1,1459.8,437.7,1461.2,439z"/>
		<path class="st0" d="M1502.7,497.4c-6.3-3.6-11.1-8.6-14.5-15.3c-3.4-6.6-5.1-14.3-5.1-23c0-8.8,1.7-16.6,5.1-23.2
			c3.4-6.6,8.2-11.7,14.5-15.3c6.3-3.6,13.5-5.3,21.8-5.3c8.3,0,15.5,1.8,21.8,5.3c6.3,3.6,11.1,8.6,14.5,15.3
			c3.4,6.6,5.1,14.3,5.1,23.2c0,8.7-1.7,16.4-5.1,23c-3.4,6.6-8.2,11.7-14.5,15.3c-6.3,3.6-13.5,5.3-21.8,5.3
			C1516.2,502.7,1509,501,1502.7,497.4z M1542.2,481.4c4.1-5.1,6.1-12.5,6.1-22.2c0-9.7-2.1-17-6.2-22.2c-4.1-5.1-10-7.7-17.6-7.7
			c-7.6,0-13.4,2.6-17.6,7.7c-4.1,5.1-6.2,12.5-6.2,22.2c0,9.8,2,17.2,6.1,22.2c4.1,5.1,10,7.6,17.7,7.6
			C1532.2,489,1538.1,486.4,1542.2,481.4z"/>
		<path class="st0" d="M1599.9,497.4c-6.3-3.6-11.1-8.6-14.5-15.3c-3.4-6.6-5.1-14.3-5.1-23c0-8.8,1.7-16.6,5.1-23.2
			c3.4-6.6,8.2-11.7,14.5-15.3c6.3-3.6,13.5-5.3,21.8-5.3c8.3,0,15.5,1.8,21.8,5.3c6.3,3.6,11.1,8.6,14.5,15.3
			c3.4,6.6,5.1,14.3,5.1,23.2c0,8.7-1.7,16.4-5.1,23c-3.4,6.6-8.2,11.7-14.5,15.3c-6.3,3.6-13.5,5.3-21.8,5.3
			C1613.5,502.7,1606.2,501,1599.9,497.4z M1639.4,481.4c4.1-5.1,6.1-12.5,6.1-22.2c0-9.7-2.1-17-6.2-22.2c-4.1-5.1-10-7.7-17.6-7.7
			c-7.6,0-13.4,2.6-17.6,7.7c-4.1,5.1-6.2,12.5-6.2,22.2c0,9.8,2,17.2,6.1,22.2c4.1,5.1,10,7.6,17.7,7.6
			C1629.4,489,1635.3,486.4,1639.4,481.4z"/>
		<path class="st0" d="M1757.6,381.4c1.6,1.5,2.4,3.5,2.4,6V494c0,2.6-0.8,4.7-2.3,6.2c-1.6,1.5-3.6,2.2-6.3,2.2
			c-2.6,0-4.7-0.7-6.3-2.2c-1.6-1.5-2.3-3.6-2.3-6.2v-6.9c-2.5,5.1-6.2,8.9-11,11.6c-4.8,2.7-10.4,4.1-16.7,4.1
			c-7.2,0-13.7-1.8-19.4-5.5c-5.7-3.7-10.1-8.8-13.3-15.5c-3.2-6.7-4.7-14.3-4.7-22.9c0-8.7,1.6-16.4,4.7-22.9
			c3.2-6.6,7.6-11.6,13.2-15.2c5.6-3.6,12.1-5.3,19.5-5.3c6.3,0,11.9,1.4,16.6,4.1c4.8,2.7,8.4,6.5,10.9,11.5v-43.8
			c0-2.4,0.8-4.3,2.3-5.8c1.5-1.4,3.6-2.2,6.3-2.2C1753.8,379.1,1756,379.9,1757.6,381.4z M1736.6,481.2c4.1-5.2,6.2-12.5,6.2-22.1
			c0-9.5-2-16.9-6.1-22.1c-4.1-5.2-9.9-7.8-17.5-7.8s-13.5,2.6-17.7,7.7c-4.2,5.1-6.3,12.4-6.3,21.8c0,9.4,2.1,16.8,6.4,22.2
			c4.3,5.3,10.1,8,17.6,8C1726.6,489,1732.4,486.4,1736.6,481.2z"/>
		<path class="st0" d="M789.7,671.6c-1.6-1.5-2.3-3.6-2.3-6.3V561c0-2.6,0.8-4.7,2.3-6.3s3.7-2.3,6.5-2.3H830
			c19.7,0,34.9,5.3,45.7,15.9c10.8,10.6,16.2,25.5,16.2,44.8s-5.4,34.3-16.2,44.9c-10.8,10.6-26,15.9-45.7,15.9h-33.8
			C793.4,673.9,791.3,673.1,789.7,671.6z M829,659.1c29.9,0,44.8-15.3,44.8-46c0-30.6-14.9-45.9-44.8-45.9h-23.8v91.9H829z"/>
		<path class="st0" d="M983.8,654.6c1,1.3,1.6,2.9,1.6,4.8c0,3.3-2.1,6.2-6.2,8.4c-4,2.3-8.4,4.1-13.2,5.3
			c-4.8,1.3-9.3,1.9-13.7,1.9c-13.3,0-23.9-3.9-31.5-11.6c-7.7-7.8-11.5-18.4-11.5-31.8c0-8.6,1.7-16.3,5.1-22.9
			c3.4-6.7,8.2-11.8,14.3-15.5c6.1-3.7,13.1-5.5,20.9-5.5c11.3,0,20.2,3.6,26.7,10.9c6.5,7.2,9.8,17,9.8,29.3c0,4.6-2.1,6.9-6.2,6.9
			h-53.3c1.1,17.8,9.7,26.7,25.7,26.7c4.3,0,7.9-0.6,11-1.7c3.1-1.1,6.4-2.6,9.8-4.5c0.3-0.2,1.3-0.7,2.8-1.5
			c1.5-0.7,2.8-1.1,3.9-1.1C981.4,652.7,982.7,653.4,983.8,654.6z M933.8,606.9c-4,4.3-6.4,10.2-7.2,17.9H971
			c-0.3-7.8-2.3-13.8-5.9-18c-3.6-4.2-8.7-6.3-15.3-6.3C943.1,600.5,937.8,602.6,933.8,606.9z"/>
		<path class="st0" d="M1080.6,621.7v44.8c0,2.6-0.8,4.7-2.3,6.1c-1.6,1.4-3.7,2.2-6.5,2.2c-2.6,0-4.7-0.7-6.3-2.2
			c-1.6-1.5-2.3-3.5-2.3-6v-44c0-7.1-1.4-12.4-4.2-15.7c-2.8-3.3-7.2-5-13.2-5c-7,0-12.6,2.2-16.9,6.6c-4.3,4.4-6.4,10.2-6.4,17.6
			v40.5c0,2.5-0.8,4.5-2.3,6c-1.6,1.5-3.6,2.2-6.3,2.2c-2.6,0-4.8-0.7-6.4-2.2c-1.6-1.5-2.4-3.5-2.4-6v-70.2c0-2.4,0.8-4.4,2.5-5.9
			c1.7-1.6,3.8-2.3,6.3-2.3c2.5,0,4.5,0.7,6,2.2c1.5,1.5,2.2,3.4,2.2,5.9v7.1c2.8-5.1,6.6-8.9,11.6-11.5c4.9-2.6,10.5-4,16.7-4
			C1070.6,587.7,1080.6,599,1080.6,621.7z"/>
		<path class="st0" d="M1151.1,663.5c1.1,1.1,1.6,2.6,1.6,4.6c0,2.3-0.9,4.1-2.7,5.3c-1.8,1.2-4.4,1.7-7.8,1.5l-4.7-0.3
			c-9.3-0.7-16.3-3.5-20.9-8.5c-4.6-5-6.9-12.4-6.9-22.2v-40.5h-10.3c-5.1,0-7.6-2.2-7.6-6.7c0-2.1,0.7-3.7,2-4.9
			c1.3-1.2,3.2-1.8,5.6-1.8h10.3V572c0-2.6,0.8-4.7,2.3-6.2c1.5-1.5,3.6-2.2,6.3-2.2c2.6,0,4.8,0.7,6.4,2.2c1.6,1.5,2.4,3.6,2.4,6.2
			v17.8h17.1c2.4,0,4.3,0.6,5.6,1.8c1.3,1.2,2,2.8,2,4.9c0,2.2-0.7,3.9-2,5c-1.3,1.2-3.2,1.7-5.6,1.7h-17.1V645
			c0,5.4,1.1,9.4,3.4,11.9c2.2,2.5,5.7,4,10.3,4.3l4.8,0.3C1148.2,661.7,1150,662.4,1151.1,663.5z"/>
		<path class="st0" d="M1166.1,568.4c-2-1.8-2.9-4.3-2.9-7.2c0-3,1-5.4,2.9-7.2c2-1.8,4.6-2.7,7.9-2.7c3.2,0,5.8,0.9,7.8,2.7
			c2,1.8,3,4.2,3,7.2c0,3-1,5.4-2.9,7.2c-2,1.8-4.6,2.8-7.9,2.8C1170.7,571.2,1168.1,570.3,1166.1,568.4z M1167.8,672.7
			c-1.7-1.4-2.5-3.4-2.5-6.2v-70c0-2.8,0.8-4.9,2.5-6.3c1.7-1.4,3.8-2.2,6.3-2.2c2.5,0,4.6,0.7,6.2,2.2c1.6,1.4,2.4,3.5,2.4,6.3v70
			c0,2.8-0.8,4.8-2.4,6.2c-1.6,1.4-3.7,2.1-6.2,2.1C1171.5,674.8,1169.4,674.1,1167.8,672.7z"/>
		<path class="st0" d="M1207.5,667.9c-2.1-1.3-3.5-2.6-4.4-4c-0.9-1.4-1.3-2.9-1.3-4.7c0-1.8,0.5-3.4,1.6-4.7c1-1.3,2.4-1.9,4-1.9
			c1.5,0,3.8,0.9,7.1,2.8c3.4,1.8,6.8,3.3,10.1,4.5c3.3,1.2,7.4,1.7,12.3,1.7c5.5,0,9.8-1,12.9-2.9c3.1-2,4.7-4.7,4.7-8.3
			c0-2.3-0.6-4.1-1.8-5.5c-1.2-1.4-3.3-2.6-6.3-3.7c-3-1.1-7.4-2.3-13.3-3.5c-10.1-2.2-17.4-5.1-21.8-8.9c-4.4-3.7-6.6-8.8-6.6-15.3
			c0-4.9,1.4-9.4,4.3-13.4c2.9-4,6.8-7,11.9-9.2c5.1-2.2,10.8-3.3,17.2-3.3c4.6,0,9.1,0.6,13.4,1.8c4.4,1.2,8.2,3,11.5,5.3
			c3.8,2.5,5.7,5.5,5.7,8.8c0,1.8-0.5,3.4-1.6,4.7c-1.1,1.3-2.4,1.9-3.9,1.9c-1,0-2.1-0.2-3.1-0.7c-1-0.5-2.4-1.2-4.1-2.2
			c-3.1-1.8-6-3.3-8.7-4.3c-2.7-1-6.1-1.6-10.1-1.6c-4.8,0-8.7,1-11.6,3.1c-2.9,2.1-4.4,4.9-4.4,8.4c0,3.2,1.3,5.7,4.1,7.5
			c2.7,1.8,7.8,3.5,15.3,5.1c7.7,1.6,13.7,3.4,18.1,5.5c4.4,2.1,7.5,4.6,9.4,7.7c1.9,3,2.8,6.9,2.8,11.6c0,7.5-3.1,13.5-9.4,18
			c-6.3,4.5-14.6,6.8-25.1,6.8C1224.6,675.1,1215,672.7,1207.5,667.9z"/>
		<path class="st0" d="M1335.8,663.5c1.1,1.1,1.6,2.6,1.6,4.6c0,2.3-0.9,4.1-2.7,5.3c-1.8,1.2-4.4,1.7-7.8,1.5l-4.7-0.3
			c-9.3-0.7-16.3-3.5-20.9-8.5c-4.6-5-6.9-12.4-6.9-22.2v-40.5h-10.3c-5.1,0-7.6-2.2-7.6-6.7c0-2.1,0.7-3.7,2-4.9
			c1.3-1.2,3.2-1.8,5.6-1.8h10.3V572c0-2.6,0.8-4.7,2.3-6.2c1.5-1.5,3.6-2.2,6.3-2.2c2.6,0,4.8,0.7,6.4,2.2c1.6,1.5,2.4,3.6,2.4,6.2
			v17.8h17.1c2.4,0,4.3,0.6,5.6,1.8c1.3,1.2,2,2.8,2,4.9c0,2.2-0.7,3.9-2,5c-1.3,1.2-3.2,1.7-5.6,1.7H1312V645
			c0,5.4,1.1,9.4,3.4,11.9c2.2,2.5,5.7,4,10.3,4.3l4.8,0.3C1332.9,661.7,1334.8,662.4,1335.8,663.5z"/>
		<path class="st0" d="M1402.5,595.1c0,2.5-0.6,4.4-1.9,5.7c-1.3,1.3-3.4,2-6.6,2.2l-5.2,0.5c-7.2,0.7-12.6,3.2-16.1,7.6
			c-3.5,4.4-5.3,9.7-5.3,15.9v39.5c0,2.8-0.8,4.8-2.4,6.2c-1.6,1.4-3.7,2.1-6.2,2.1c-2.5,0-4.6-0.7-6.3-2.1
			c-1.7-1.4-2.5-3.4-2.5-6.2v-70.2c0-2.6,0.8-4.7,2.5-6.1c1.7-1.4,3.8-2.2,6.3-2.2c2.3,0,4.2,0.7,5.8,2.2c1.5,1.4,2.3,3.4,2.3,5.9
			v8.3c2.3-5.1,5.6-8.9,10-11.5c4.4-2.6,9.3-4.2,14.8-4.7l2.4-0.2C1399.7,587.7,1402.5,590.1,1402.5,595.1z"/>
		<path class="st0" d="M1481.2,589.5c1.3-0.8,2.7-1.2,4.2-1.2c2.2,0,4.1,0.7,5.8,2.2c1.7,1.5,2.5,3.3,2.5,5.3c0,1.2-0.2,2.2-0.7,3.3
			l-47.9,101.7c-0.7,1.6-1.7,2.8-3,3.7c-1.3,0.9-2.7,1.3-4.2,1.3c-2.1,0-3.9-0.7-5.6-2.1c-1.7-1.4-2.5-3.1-2.5-5.2
			c0-0.9,0.3-2.1,0.9-3.4l11.9-25.3l-33.3-70.7c-0.5-0.9-0.7-2-0.7-3.1c0-2.2,0.9-4,2.8-5.5c1.8-1.5,3.9-2.2,6.2-2.2
			c3.4,0,5.9,1.6,7.4,4.8l26.7,59.3l26.5-59.1C1478.8,591.5,1479.8,590.3,1481.2,589.5z"/>
	</g>
	<g>
		<g>
			<path class="st0" d="M405.7,613.1c17.3,0,25,19.3,31.8,36.4c5.5,13.9,11.3,28.2,19.8,28.2c6.6,0,24.1-19.3,42.4-62.1
				c17.9-41.9,28.6-87,28.6-120.8c0-19.8-3.5-35.2-10.5-45.7c-7.5-11.4-18.9-16.9-34.7-16.9c-11.4,0-23.3,6-36,12.3
				c-13.4,6.7-27.2,13.6-41.6,13.6c-14.4,0-28.2-6.9-41.6-13.6c-12.6-6.3-24.5-12.2-35.8-12.2c-15.9,0-27.3,5.5-34.9,16.9
				c-7,10.6-10.6,25.9-10.6,45.7c0,33.8,10.7,79,28.7,120.8c18.4,42.8,36,62.1,42.5,62.1c8.5,0,14.3-14.4,19.8-28.2
				C380.6,632.4,388.4,613.1,405.7,613.1z"/>
			<path class="st0" d="M457.2,690.6c-17.3,0-25-19.3-31.8-36.4c-5.5-13.9-11.3-28.2-19.8-28.2c-8.5,0-14.3,14.4-19.8,28.2
				c-6.8,17-14.5,36.4-31.8,36.4c-22,0-45.4-48.9-54.4-69.9c-18.7-43.4-29.8-90.5-29.8-125.9c0-22.4,4.3-40.1,12.7-52.9
				c10-15,25.3-22.7,45.6-22.7c14.4,0,28.2,6.9,41.6,13.6c12.6,6.3,24.5,12.2,35.8,12.2c11.3,0,23.2-5.9,35.8-12.2
				c13.4-6.7,27.3-13.6,41.7-13.6c20.2,0,35.5,7.6,45.5,22.7c8.4,12.7,12.7,30.5,12.7,52.9c0,35.5-11.1,82.6-29.7,125.9
				C502.5,641.8,479.2,690.6,457.2,690.6z M405.6,613.1c17.3,0,25,19.3,31.8,36.4c5.5,13.9,11.3,28.2,19.8,28.2
				c6.6,0,24.1-19.3,42.4-62.1c17.9-41.9,28.6-87,28.6-120.8c0-19.8-3.5-35.2-10.5-45.7c-7.5-11.4-18.9-16.9-34.7-16.9
				c-11.4,0-23.3,6-36,12.3c-13.4,6.7-27.2,13.6-41.6,13.6c-14.4,0-28.2-6.9-41.6-13.6c-12.6-6.3-24.5-12.2-35.8-12.2
				c-15.9,0-27.3,5.5-34.9,16.9c-7,10.6-10.6,25.9-10.6,45.7c0,33.8,10.7,79,28.7,120.8c18.4,42.8,36,62.1,42.5,62.1
				c8.5,0,14.3-14.4,19.8-28.2C380.6,632.4,388.3,613.1,405.6,613.1z"/>
		</g>
		<g>
			<g>
				<path class="st1" d="M405.5,587.3c-42.3,0-56.9-28.2-57.5-29.4c-1.6-3.2-0.3-7.1,2.9-8.7c3.2-1.6,7-0.3,8.6,2.9
					c0.5,1,12,22.3,45.9,22.3c34,0,45.5-21.4,45.9-22.3c1.6-3.2,5.5-4.4,8.7-2.8c3.2,1.6,4.4,5.5,2.9,8.6
					C462.4,559,447.8,587.3,405.5,587.3z"/>
			</g>
		</g>
		<g>
			<g>
				<g>
					<g>
						<path class="st2" d="M405.5,347.8c-4.1,0-7.5-3.3-7.5-7.5V303c0-4.1,3.3-7.5,7.5-7.5c4.1,0,7.5,3.3,7.5,7.5v37.4
							C413,344.5,409.6,347.8,405.5,347.8z"/>
					</g>
				</g>
			</g>
			<g>
				<g>
					<g>
						<path class="st2" d="M332.6,361.4c-3,0-5.8-1.8-7-4.8l-13.5-34.8c-1.5-3.8,0.4-8.2,4.3-9.7c3.8-1.5,8.2,0.4,9.7,4.3l13.5,34.8
							c1.5,3.8-0.4,8.2-4.3,9.7C334.5,361.3,333.5,361.4,332.6,361.4z"/>
					</g>
				</g>
			</g>
			<g>
				<g>
					<g>
						<path class="st2" d="M269.6,400.4c-2,0-4-0.8-5.5-2.4l-25.2-27.6c-2.8-3-2.6-7.8,0.5-10.6c3-2.8,7.8-2.6,10.6,0.5l25.2,27.6
							c2.8,3,2.6,7.8-0.5,10.6C273.2,399.8,271.4,400.4,269.6,400.4z"/>
					</g>
				</g>
			</g>
			<g>
				<g>
					<g>
						<path class="st2" d="M224.9,459.6c-1.1,0-2.3-0.3-3.3-0.8l-33.4-16.6c-3.7-1.8-5.2-6.3-3.4-10c1.8-3.7,6.3-5.2,10-3.4
							l33.4,16.6c3.7,1.8,5.2,6.3,3.4,10C230.3,458.1,227.7,459.6,224.9,459.6z"/>
					</g>
				</g>
			</g>
			<g>
				<g>
					<g>
						<path class="st2" d="M204.7,530.9c-0.2,0-0.5,0-0.7,0l-37.2-3.4c-4.1-0.4-7.1-4-6.7-8.1c0.4-4.1,4-7.1,8.1-6.7l37.2,3.4
							c4.1,0.4,7.1,4,6.7,8.1C211.7,528,208.5,530.9,204.7,530.9z"/>
					</g>
				</g>
			</g>
			<g>
				<g>
					<g>
						<path class="st2" d="M175.6,614.9c-3.3,0-6.2-2.1-7.2-5.4c-1.1-4,1.2-8.1,5.1-9.2l35.9-10.2c4-1.1,8.1,1.2,9.2,5.1
							c1.1,4-1.2,8.1-5.1,9.2l-35.9,10.2C176.9,614.8,176.3,614.9,175.6,614.9z"/>
					</g>
				</g>
			</g>
			<g>
				<g>
					<g>
						<path class="st2" d="M214.7,693.6c-2.3,0-4.5-1-6-3c-2.5-3.3-1.8-8,1.5-10.5l29.8-22.5c3.3-2.5,8-1.8,10.5,1.5
							c2.5,3.3,1.8,8-1.5,10.5l-29.8,22.5C217.9,693.1,216.3,693.6,214.7,693.6z"/>
					</g>
				</g>
			</g>
			<g>
				<g>
					<g>
						<path class="st2" d="M279.7,752.8c-1.3,0-2.7-0.4-3.9-1.1c-3.5-2.2-4.6-6.8-2.4-10.3l19.7-31.8c2.2-3.5,6.8-4.6,10.3-2.4
							c3.5,2.2,4.6,6.8,2.4,10.3L286,749.2C284.6,751.5,282.2,752.8,279.7,752.8z"/>
					</g>
				</g>
			</g>
			<g>
				<g>
					<g>
						<path class="st2" d="M361.6,784.5c-0.5,0-0.9,0-1.4-0.1c-4.1-0.8-6.7-4.7-6-8.7l6.9-36.7c0.8-4.1,4.7-6.7,8.7-6
							c4.1,0.8,6.7,4.7,6,8.7l-6.9,36.7C368.3,782,365.1,784.5,361.6,784.5z"/>
					</g>
				</g>
			</g>
			<g>
				<g>
					<g>
						<path class="st2" d="M449.4,784.5c-3.5,0-6.7-2.5-7.3-6.1l-6.9-36.7c-0.8-4.1,1.9-8,6-8.7c4.1-0.8,8,1.9,8.7,6l6.9,36.7
							c0.8,4.1-1.9,8-6,8.7C450.3,784.5,449.9,784.5,449.4,784.5z"/>
					</g>
				</g>
			</g>
			<g>
				<g>
					<g>
						<path class="st2" d="M531.4,752.8c-2.5,0-4.9-1.3-6.4-3.5l-19.7-31.8c-2.2-3.5-1.1-8.1,2.4-10.3c3.5-2.2,8.1-1.1,10.3,2.4
							l19.7,31.8c2.2,3.5,1.1,8.1-2.4,10.3C534.1,752.4,532.7,752.8,531.4,752.8z"/>
					</g>
				</g>
			</g>
			<g>
				<g>
					<g>
						<path class="st2" d="M596.3,693.6c-1.6,0-3.1-0.5-4.5-1.5L562,669.6c-3.3-2.5-3.9-7.2-1.5-10.5c2.5-3.3,7.2-3.9,10.5-1.5
							l29.8,22.5c3.3,2.5,3.9,7.2,1.5,10.5C600.8,692.5,598.5,693.6,596.3,693.6z"/>
					</g>
				</g>
			</g>
			<g>
				<g>
					<g>
						<path class="st2" d="M635.5,614.9c-0.7,0-1.4-0.1-2-0.3l-35.9-10.2c-4-1.1-6.3-5.3-5.1-9.2c1.1-4,5.3-6.3,9.2-5.1l35.9,10.2
							c4,1.1,6.3,5.3,5.1,9.2C641.7,612.8,638.7,614.9,635.5,614.9z"/>
					</g>
				</g>
			</g>
			<g>
				<g>
					<g>
						<path class="st2" d="M606.4,530.9c-3.8,0-7.1-2.9-7.4-6.8c-0.4-4.1,2.6-7.7,6.8-8.1l37.2-3.4c4.1-0.4,7.7,2.6,8.1,6.7
							c0.4,4.1-2.6,7.7-6.8,8.1l-37.2,3.4C606.8,530.9,606.6,530.9,606.4,530.9z"/>
					</g>
				</g>
			</g>
			<g>
				<g>
					<g>
						<path class="st2" d="M586.1,459.6c-2.7,0-5.4-1.5-6.7-4.1c-1.8-3.7-0.3-8.2,3.4-10l33.4-16.6c3.7-1.8,8.2-0.3,10,3.4
							c1.8,3.7,0.3,8.2-3.4,10l-33.4,16.6C588.3,459.3,587.2,459.6,586.1,459.6z"/>
					</g>
				</g>
			</g>
			<g>
				<g>
					<g>
						<path class="st2" d="M541.4,400.4c-1.8,0-3.6-0.6-5-1.9c-3-2.8-3.3-7.5-0.5-10.6l25.2-27.6c2.8-3,7.5-3.3,10.6-0.5
							c3,2.8,3.3,7.5,0.5,10.6L546.9,398C545.5,399.6,543.4,400.4,541.4,400.4z"/>
					</g>
				</g>
			</g>
			<g>
				<g>
					<g>
						<path class="st2" d="M478.4,361.4c-0.9,0-1.8-0.2-2.7-0.5c-3.8-1.5-5.8-5.8-4.3-9.7l13.5-34.8c1.5-3.8,5.8-5.8,9.7-4.3
							c3.8,1.5,5.8,5.8,4.3,9.7l-13.5,34.8C484.2,359.6,481.4,361.4,478.4,361.4z"/>
					</g>
				</g>
			</g>
		</g>
	</g>
</g>
</svg>
