<?xml version="1.0" encoding="utf-8"?>
<!-- Generator: Adobe Illustrator 23.0.1, SVG Export Plug-In . SVG Version: 6.00 Build 0)  -->
<svg version="1.1" id="Layer_1" xmlns="http://www.w3.org/2000/svg" xmlns:xlink="http://www.w3.org/1999/xlink" x="0px" y="0px"
	 viewBox="0 0 128 128" style="enable-background:new 0 0 128 128;" xml:space="preserve">
<style type="text/css">
	.st0{fill:#061D32;}
	.st1{fill:#FFFFFF;}
</style>
<g>
	<path class="st0" d="M88.4,128c-8.2,0-11.8-9.1-15-17.2c-2.6-6.5-5.3-13.3-9.3-13.3c-4,0-6.7,6.8-9.4,13.3c-3.2,8-6.9,17.1-15,17.1
		c-10.4,0-21.4-23-25.7-33C5.3,74.6,0,52.4,0,35.6c0-10.5,2-18.9,6-24.9C10.7,3.6,17.9,0,27.5,0c6.8,0,13.3,3.3,19.6,6.4
		c5.9,3,11.5,5.8,16.9,5.8c5.3,0,10.9-2.8,16.9-5.8C87.2,3.3,93.8,0,100.6,0c9.5,0,16.8,3.6,21.4,10.7c4,6,6,14.4,6,24.9
		c0,16.7-5.2,38.9-14,59.4C109.8,104.9,98.8,128,88.4,128z M64.1,91.4c8.2,0,11.8,9.1,15,17.2c2.6,6.5,5.3,13.3,9.3,13.3
		c3.1,0,11.4-9.1,20-29.3c8.5-19.7,13.5-41,13.5-57c0-9.3-1.7-16.6-5-21.6c-3.5-5.4-8.9-8-16.4-8c-5.4,0-11,2.8-17,5.8
		C77.3,15,70.8,18.3,64,18.3c-6.8,0-13.3-3.3-19.6-6.4c-5.9-3-11.5-5.8-16.9-5.8c-7.5,0-12.9,2.6-16.4,8c-3.3,5-5,12.2-5,21.5
		c0,15.9,5.1,37.2,13.6,57c8.7,20.2,16.9,29.3,20.1,29.3c4,0,6.7-6.8,9.4-13.3C52.3,100.5,55.9,91.4,64.1,91.4z"/>
</g>
<path class="st1" d="M64.1,91.4c8.2,0,11.8,9.1,15,17.2c2.6,6.5,5.3,13.3,9.3,13.3c3.1,0,11.4-9.1,20-29.3c8.5-19.7,13.5-41,13.5-57
	c0-9.3-1.7-16.6-5-21.6c-3.5-5.4-8.9-8-16.4-8c-5.4,0-11,2.8-17,5.8C77.3,15,70.8,18.3,64,18.3c-6.8,0-13.3-3.3-19.6-6.4
	c-5.9-3-11.5-5.8-16.9-5.8c-7.5,0-12.9,2.6-16.4,8c-3.3,5-5,12.2-5,21.5c0,15.9,5.1,37.2,13.6,57c8.7,20.2,16.9,29.3,20.1,29.3
	c4,0,6.7-6.8,9.4-13.3C52.3,100.5,55.9,91.4,64.1,91.4z"/>
<g>
	<path class="st0" d="M90.5,73.5c-0.8,0-1.5-0.3-2.1-0.9L64.5,48.7L40.6,72.6c-1.2,1.2-3.1,1.2-4.2,0c-1.2-1.2-1.2-3.1,0-4.2l26-26
		c1.2-1.2,3.1-1.2,4.2,0l26,26c1.2,1.2,1.2,3.1,0,4.2C92,73.2,91.3,73.5,90.5,73.5z"/>
</g>
</svg>
