<?xml version="1.0" encoding="utf-8"?>
<!-- Generator: Adobe Illustrator 22.1.0, SVG Export Plug-In . SVG Version: 6.00 Build 0)  -->
<svg version="1.1" id="Layer_1" xmlns="http://www.w3.org/2000/svg" xmlns:xlink="http://www.w3.org/1999/xlink" x="0px" y="0px"
	 viewBox="0 0 1920 1080" style="enable-background:new 0 0 1920 1080;" xml:space="preserve">
<style type="text/css">
	.st0{fill:#061D32;}
	.st1{fill:#FFFFFF;}
	.st2{fill:#ACDCD2;}
</style>
<g>
	<g>
		<path class="st0" d="M2835-461.1c-45.1,0-60.5-29.7-61.1-30.9c-0.9-1.7-0.2-3.8,1.6-4.7c1.7-0.9,3.8-0.2,4.7,1.6l0,0
			c0.6,1.1,14.2,27.1,54.9,27.1s54.3-26,54.9-27.1c0.9-1.7,3-2.4,4.7-1.5c1.7,0.9,2.4,3,1.6,4.7
			C2895.5-490.8,2880.1-461.1,2835-461.1z"/>
	</g>
	<g>
		<g>
			<path class="st0" d="M2779.9-514.9c-2.9-0.9-5.2-2.1-6.9-3.7c-0.8-0.7-1.2-1.5-1.2-2.6c0-0.8,0.2-1.4,0.6-1.9
				c0.4-0.5,0.9-0.8,1.5-0.8c0.6,0,1.3,0.3,2.1,0.8c3.7,2.8,8,4.2,12.8,4.2c3.4,0,6-0.6,7.8-1.9c1.8-1.3,2.7-3.1,2.7-5.4
				c0-1.9-0.8-3.2-2.5-4.2c-1.7-0.9-4.4-1.8-8.1-2.7c-3.5-0.8-6.4-1.6-8.7-2.6c-2.3-1-4.1-2.3-5.3-3.9c-1.3-1.7-1.9-3.8-1.9-6.4
				c0-2.6,0.7-4.9,2.1-6.9c1.4-2,3.4-3.6,5.9-4.7c2.5-1.1,5.4-1.7,8.7-1.7c3,0,5.8,0.4,8.3,1.3c2.5,0.8,4.7,2.1,6.4,3.7
				c0.8,0.7,1.3,1.6,1.3,2.6c0,0.7-0.2,1.3-0.7,1.9c-0.4,0.5-1,0.8-1.5,0.8c-0.5,0-1.2-0.3-2.1-0.8c-1.9-1.5-3.8-2.5-5.5-3.2
				c-1.7-0.7-3.8-1-6.2-1c-3.2,0-5.8,0.7-7.6,2c-1.8,1.3-2.7,3.2-2.7,5.5c0,2,0.8,3.5,2.4,4.6c1.6,1,4.2,2,7.7,2.8
				c3.7,0.8,6.7,1.7,9,2.6c2.3,0.9,4.1,2.1,5.5,3.7c1.4,1.6,2.1,3.6,2.1,6.1c0,2.5-0.7,4.8-2.1,6.7c-1.4,2-3.4,3.5-5.9,4.6
				c-2.5,1.1-5.5,1.6-8.8,1.6C2785.8-513.6,2782.8-514.1,2779.9-514.9z"/>
		</g>
		<g>
			<path class="st0" d="M2849.3-537.1c0.5,0.5,0.7,1.1,0.7,1.9v14.8c0,1.4-0.2,2.5-0.6,3.1c-0.4,0.6-1.2,1.1-2.4,1.5
				c-1.7,0.7-3.7,1.2-6,1.6c-2.3,0.4-4.6,0.6-6.9,0.6c-4.5,0-8.4-0.9-11.7-2.7c-3.3-1.8-5.8-4.4-7.5-7.8c-1.7-3.4-2.6-7.5-2.6-12.3
				c0-4.7,0.9-8.7,2.6-12.1c1.7-3.4,4.2-6,7.4-7.9c3.2-1.8,7-2.7,11.3-2.7c2.9,0,5.7,0.4,8.2,1.3c2.5,0.9,4.6,2.1,6.4,3.8
				c0.8,0.7,1.3,1.5,1.3,2.5c0,0.8-0.2,1.4-0.6,1.9c-0.4,0.5-0.9,0.8-1.5,0.8c-0.4,0-0.7-0.1-1-0.2c-0.3-0.1-0.7-0.3-1.1-0.6
				c-2.1-1.5-3.9-2.6-5.6-3.2c-1.7-0.6-3.6-0.9-5.8-0.9c-4.8,0-8.5,1.5-11,4.5c-2.5,3-3.8,7.3-3.8,12.9c0,5.8,1.3,10.1,3.9,13.1
				s6.4,4.5,11.4,4.5c3.4,0,6.6-0.5,9.7-1.5v-12.4h-8.3c-0.8,0-1.5-0.2-2-0.7c-0.5-0.4-0.7-1-0.7-1.8s0.2-1.4,0.7-1.8
				c0.5-0.4,1.1-0.7,2-0.7h11.6C2848.2-537.8,2848.9-537.5,2849.3-537.1z"/>
		</g>
		<g>
			<path class="st0" d="M2860.8-515c-0.6-0.6-0.9-1.3-0.9-2.3v-38.2c0-1,0.3-1.7,0.9-2.3c0.6-0.6,1.4-0.9,2.4-0.9h12.4
				c7.2,0,12.8,1.9,16.7,5.8c4,3.9,5.9,9.4,5.9,16.4s-2,12.6-5.9,16.5c-4,3.9-9.5,5.8-16.7,5.8h-12.4
				C2862.1-514.1,2861.4-514.4,2860.8-515z M2875.2-519.6c11,0,16.4-5.6,16.4-16.9c0-11.2-5.5-16.8-16.4-16.8h-8.7v33.7H2875.2z"/>
		</g>
	</g>
</g>
<g>
	<g>
		<path class="st0" d="M1857-527.4c-7.1,0-10.2-7.9-13-14.9c-2.3-5.7-4.6-11.5-8.1-11.5c-3.5,0-5.8,5.9-8.1,11.6
			c-2.8,7-5.9,14.9-13,14.9c-9,0-18.6-20-22.3-28.6c-7.6-17.8-12.2-37-12.2-51.5c0-9.1,1.8-16.4,5.2-21.6c4.1-6.2,10.4-9.3,18.7-9.3
			c5.9,0,11.5,2.8,17,5.6c5.1,2.6,10,5,14.7,5c4.6,0,9.5-2.4,14.6-5c5.5-2.7,11.2-5.6,17.1-5.6c8.3,0,14.5,3.1,18.6,9.3
			c3.4,5.2,5.2,12.5,5.2,21.6c0,14.5-4.5,33.8-12.1,51.5C1875.5-547.4,1866-527.4,1857-527.4z M1835.9-559.1c7.1,0,10.2,7.9,13,14.9
			c2.3,5.7,4.6,11.5,8.1,11.5c2.7,0,9.9-7.9,17.4-25.4c7.3-17.1,11.7-35.6,11.7-49.4c0-8.1-1.4-14.4-4.3-18.7
			c-3.1-4.7-7.7-6.9-14.2-6.9c-4.7,0-9.5,2.4-14.7,5c-5.5,2.7-11.1,5.6-17,5.6c-5.9,0-11.5-2.8-17-5.6c-5.1-2.6-10-5-14.7-5
			c-6.5,0-11.2,2.3-14.3,6.9c-2.9,4.3-4.3,10.6-4.3,18.7c0,13.8,4.4,32.3,11.8,49.4c7.5,17.5,14.7,25.4,17.4,25.4
			c3.5,0,5.8-5.9,8.1-11.6C1825.6-551.2,1828.8-559.1,1835.9-559.1z"/>
	</g>
	<path class="st1" d="M1835.9-559.1c7.1,0,10.2,7.9,13,14.9c2.3,5.7,4.6,11.5,8.1,11.5c2.7,0,9.9-7.9,17.4-25.4
		c7.3-17.1,11.7-35.6,11.7-49.4c0-8.1-1.4-14.4-4.3-18.7c-3.1-4.7-7.7-6.9-14.2-6.9c-4.7,0-9.5,2.4-14.7,5c-5.5,2.7-11.1,5.6-17,5.6
		c-5.9,0-11.5-2.8-17-5.6c-5.1-2.6-10-5-14.7-5c-6.5,0-11.2,2.3-14.3,6.9c-2.9,4.3-4.3,10.6-4.3,18.7c0,13.8,4.4,32.3,11.8,49.4
		c7.5,17.5,14.7,25.4,17.4,25.4c3.5,0,5.8-5.9,8.1-11.6C1825.6-551.2,1828.8-559.1,1835.9-559.1z"/>
	<g>
		<path class="st0" d="M1835.8-569.7c-17.3,0-23.3-11.5-23.5-12c-0.7-1.3-0.1-2.9,1.2-3.5c1.3-0.6,2.9-0.1,3.5,1.2
			c0.2,0.4,4.9,9.1,18.8,9.1c13.9,0,18.6-8.8,18.8-9.1c0.7-1.3,2.3-1.8,3.5-1.1c1.3,0.7,1.8,2.2,1.2,3.5
			C1859.1-581.2,1853.1-569.7,1835.8-569.7z"/>
	</g>
	<g>
		<g>
			<g>
				<path class="st0" d="M1835.8-667.6c-1.7,0-3.1-1.4-3.1-3.1V-686c0-1.7,1.4-3.1,3.1-3.1c1.7,0,3.1,1.4,3.1,3.1v15.3
					C1838.9-669,1837.5-667.6,1835.8-667.6z"/>
			</g>
		</g>
		<g>
			<g>
				<path class="st0" d="M1806-662.1c-1.2,0-2.4-0.7-2.8-2l-5.5-14.2c-0.6-1.6,0.2-3.3,1.7-4c1.6-0.6,3.3,0.2,4,1.7l5.5,14.2
					c0.6,1.6-0.2,3.3-1.7,4C1806.8-662.1,1806.4-662.1,1806-662.1z"/>
			</g>
		</g>
		<g>
			<g>
				<path class="st0" d="M1780.3-646.1c-0.8,0-1.7-0.3-2.3-1l-10.3-11.3c-1.1-1.2-1-3.2,0.2-4.3c1.2-1.1,3.2-1,4.3,0.2l10.3,11.3
					c1.1,1.2,1,3.2-0.2,4.3C1781.7-646.4,1781-646.1,1780.3-646.1z"/>
			</g>
		</g>
		<g>
			<g>
				<path class="st0" d="M1762-621.9c-0.5,0-0.9-0.1-1.4-0.3l-13.7-6.8c-1.5-0.8-2.1-2.6-1.4-4.1c0.8-1.5,2.6-2.1,4.1-1.4l13.7,6.8
					c1.5,0.8,2.1,2.6,1.4,4.1C1764.2-622.5,1763.1-621.9,1762-621.9z"/>
			</g>
		</g>
		<g>
			<g>
				<path class="st0" d="M1753.7-592.7c-0.1,0-0.2,0-0.3,0l-15.2-1.4c-1.7-0.2-2.9-1.6-2.8-3.3c0.2-1.7,1.6-2.9,3.3-2.8l15.2,1.4
					c1.7,0.2,2.9,1.6,2.8,3.3C1756.6-593.9,1755.3-592.7,1753.7-592.7z"/>
			</g>
		</g>
		<g>
			<g>
				<path class="st0" d="M1741.8-558.4c-1.3,0-2.6-0.9-2.9-2.2c-0.5-1.6,0.5-3.3,2.1-3.8l14.7-4.2c1.6-0.5,3.3,0.5,3.8,2.1
					c0.5,1.6-0.5,3.3-2.1,3.8l-14.7,4.2C1742.3-558.4,1742.1-558.4,1741.8-558.4z"/>
			</g>
		</g>
		<g>
			<g>
				<path class="st0" d="M1757.8-526.2c-0.9,0-1.8-0.4-2.4-1.2c-1-1.3-0.7-3.3,0.6-4.3l12.2-9.2c1.3-1,3.3-0.7,4.3,0.6
					c1,1.3,0.7,3.3-0.6,4.3l-12.2,9.2C1759.1-526.4,1758.4-526.2,1757.8-526.2z"/>
			</g>
		</g>
		<g>
			<g>
				<path class="st0" d="M1784.4-502c-0.5,0-1.1-0.1-1.6-0.5c-1.4-0.9-1.9-2.8-1-4.2l8-13c0.9-1.4,2.8-1.9,4.2-1
					c1.4,0.9,1.9,2.8,1,4.2l-8,13C1786.4-502.5,1785.4-502,1784.4-502z"/>
			</g>
		</g>
		<g>
			<g>
				<path class="st0" d="M1817.9-489c-0.2,0-0.4,0-0.6-0.1c-1.7-0.3-2.8-1.9-2.4-3.6l2.8-15c0.3-1.7,1.9-2.8,3.6-2.4
					c1.7,0.3,2.8,1.9,2.4,3.6l-2.8,15C1820.6-490,1819.3-489,1817.9-489z"/>
			</g>
		</g>
		<g>
			<g>
				<path class="st0" d="M1853.8-489c-1.4,0-2.7-1-3-2.5l-2.8-15c-0.3-1.7,0.8-3.3,2.4-3.6c1.7-0.3,3.3,0.8,3.6,2.4l2.8,15
					c0.3,1.7-0.8,3.3-2.4,3.6C1854.2-489,1854-489,1853.8-489z"/>
			</g>
		</g>
		<g>
			<g>
				<path class="st0" d="M1887.3-502c-1,0-2-0.5-2.6-1.4l-8-13c-0.9-1.4-0.4-3.3,1-4.2c1.4-0.9,3.3-0.4,4.2,1l8,13
					c0.9,1.4,0.4,3.3-1,4.2C1888.4-502.2,1887.9-502,1887.3-502z"/>
			</g>
		</g>
		<g>
			<g>
				<path class="st0" d="M1913.9-526.2c-0.6,0-1.3-0.2-1.8-0.6l-12.2-9.2c-1.3-1-1.6-2.9-0.6-4.3c1-1.3,2.9-1.6,4.3-0.6l12.2,9.2
					c1.3,1,1.6,2.9,0.6,4.3C1915.7-526.6,1914.8-526.2,1913.9-526.2z"/>
			</g>
		</g>
		<g>
			<g>
				<path class="st0" d="M1929.9-558.4c-0.3,0-0.6,0-0.8-0.1l-14.7-4.2c-1.6-0.5-2.6-2.2-2.1-3.8c0.5-1.6,2.2-2.6,3.8-2.1l14.7,4.2
					c1.6,0.5,2.6,2.2,2.1,3.8C1932.4-559.3,1931.2-558.4,1929.9-558.4z"/>
			</g>
		</g>
		<g>
			<g>
				<path class="st0" d="M1918-592.7c-1.6,0-2.9-1.2-3-2.8c-0.2-1.7,1.1-3.2,2.8-3.3l15.2-1.4c1.7-0.2,3.2,1.1,3.3,2.8
					c0.2,1.7-1.1,3.2-2.8,3.3l-15.2,1.4C1918.2-592.8,1918.1-592.7,1918-592.7z"/>
			</g>
		</g>
		<g>
			<g>
				<path class="st0" d="M1909.7-621.9c-1.1,0-2.2-0.6-2.7-1.7c-0.8-1.5-0.1-3.3,1.4-4.1l13.7-6.8c1.5-0.8,3.3-0.1,4.1,1.4
					c0.8,1.5,0.1,3.3-1.4,4.1l-13.7,6.8C1910.6-622,1910.1-621.9,1909.7-621.9z"/>
			</g>
		</g>
		<g>
			<g>
				<path class="st0" d="M1891.4-646.1c-0.7,0-1.5-0.3-2.1-0.8c-1.2-1.1-1.3-3.1-0.2-4.3l10.3-11.3c1.1-1.2,3.1-1.3,4.3-0.2
					c1.2,1.1,1.3,3.1,0.2,4.3l-10.3,11.3C1893.1-646.4,1892.2-646.1,1891.4-646.1z"/>
			</g>
		</g>
		<g>
			<g>
				<path class="st0" d="M1865.6-662.1c-0.4,0-0.7-0.1-1.1-0.2c-1.6-0.6-2.4-2.4-1.7-4l5.5-14.2c0.6-1.6,2.4-2.4,4-1.7
					c1.6,0.6,2.4,2.4,1.7,4l-5.5,14.2C1868-662.8,1866.9-662.1,1865.6-662.1z"/>
			</g>
		</g>
	</g>
</g>
<g>
	<g>
		<path class="st0" d="M802.7,499.3c-7.9-2.4-14.2-5.7-18.9-10c-2.2-1.8-3.3-4.2-3.3-7.1c0-2.1,0.6-3.8,1.7-5.3
			c1.1-1.4,2.5-2.2,4.1-2.2c1.6,0,3.6,0.7,5.9,2.2c10.2,7.6,21.9,11.4,35,11.4c9.2,0,16.3-1.7,21.2-5.2c4.9-3.4,7.4-8.4,7.4-14.8
			c0-5.1-2.3-8.8-6.9-11.4c-4.6-2.5-12-4.9-22.1-7.2c-9.7-2.1-17.6-4.4-23.8-7.1c-6.2-2.6-11.1-6.2-14.6-10.8
			c-3.5-4.5-5.3-10.3-5.3-17.3c0-7,1.9-13.2,5.8-18.7c3.8-5.5,9.2-9.7,16.1-12.8c6.9-3,14.8-4.6,23.6-4.6c8.2,0,15.7,1.1,22.6,3.4
			c6.9,2.3,12.8,5.7,17.6,10.2c2.3,2,3.4,4.3,3.4,7.1c0,2-0.6,3.7-1.8,5.2c-1.2,1.5-2.6,2.2-4.2,2.2c-1.5,0-3.4-0.7-5.7-2.2
			c-5.3-4-10.3-6.9-14.9-8.7c-4.7-1.8-10.3-2.7-16.8-2.7c-8.9,0-15.7,1.8-20.7,5.4c-4.9,3.6-7.4,8.6-7.4,15.1
			c0,5.5,2.2,9.7,6.5,12.5c4.4,2.8,11.4,5.4,21,7.7c10.1,2.3,18.3,4.7,24.6,7.2c6.3,2.5,11.3,5.9,15,10.2c3.7,4.3,5.6,9.9,5.6,16.6
			c0,6.9-1.9,13-5.8,18.4c-3.9,5.3-9.3,9.5-16.2,12.4c-7,2.9-15,4.4-24,4.4C818.8,502.9,810.5,501.7,802.7,499.3z"/>
		<path class="st0" d="M894.3,396c-2-1.8-2.9-4.3-2.9-7.2c0-3,1-5.4,2.9-7.2c2-1.8,4.6-2.7,7.9-2.7c3.2,0,5.8,0.9,7.8,2.7
			c2,1.8,3,4.2,3,7.2c0,3-1,5.4-2.9,7.2c-2,1.8-4.6,2.8-7.9,2.8C898.9,398.8,896.2,397.9,894.3,396z M895.9,500.3
			c-1.7-1.4-2.5-3.4-2.5-6.2v-70c0-2.8,0.8-4.9,2.5-6.3c1.7-1.4,3.8-2.2,6.3-2.2c2.5,0,4.6,0.7,6.2,2.2c1.6,1.4,2.4,3.5,2.4,6.3v70
			c0,2.8-0.8,4.8-2.4,6.2c-1.6,1.4-3.7,2.1-6.2,2.1C899.7,502.4,897.6,501.7,895.9,500.3z"/>
		<path class="st0" d="M1060,449.3v44.8c0,2.6-0.8,4.7-2.4,6.1s-3.7,2.2-6.4,2.2c-2.5,0-4.6-0.7-6.2-2.2c-1.6-1.4-2.4-3.5-2.4-6.1
			v-44.6c0-7-1.3-12.1-3.8-15.3c-2.5-3.2-6.5-4.7-11.9-4.7c-6.3,0-11.3,2.2-15,6.5c-3.7,4.3-5.5,10.2-5.5,17.7v40.5
			c0,2.6-0.8,4.7-2.4,6.1c-1.6,1.4-3.7,2.2-6.4,2.2c-2.5,0-4.6-0.7-6.2-2.2c-1.6-1.4-2.4-3.5-2.4-6.1v-44.6c0-7-1.3-12.1-3.8-15.3
			c-2.5-3.2-6.5-4.7-11.9-4.7c-6.3,0-11.4,2.2-15.1,6.5c-3.7,4.3-5.6,10.2-5.6,17.7v40.5c0,2.6-0.8,4.7-2.4,6.1
			c-1.6,1.4-3.7,2.2-6.2,2.2c-2.5,0-4.6-0.7-6.3-2.2c-1.7-1.4-2.5-3.5-2.5-6.1V424c0-2.5,0.9-4.5,2.6-6c1.7-1.5,3.8-2.2,6.2-2.2
			s4.4,0.7,5.9,2.2c1.6,1.4,2.3,3.4,2.3,5.9v6.4c2.5-4.8,6-8.5,10.5-11c4.5-2.5,9.7-3.8,15.5-3.8c6.4,0,11.7,1.3,15.9,4
			c4.2,2.6,7.3,6.7,9.4,12.2c2.5-4.9,6.3-8.9,11.2-11.8c4.9-2.9,10.6-4.4,16.9-4.4C1050.5,415.3,1060,426.7,1060,449.3z"/>
		<path class="st0" d="M1148.3,420.9c5.7,3.7,10.1,8.9,13.3,15.5c3.2,6.7,4.7,14.4,4.7,23.1c0,8.6-1.6,16.2-4.7,22.8
			c-3.1,6.6-7.5,11.6-13.2,15.2c-5.7,3.6-12.2,5.3-19.6,5.3c-6.3,0-11.9-1.4-16.7-4.1c-4.8-2.7-8.5-6.6-11-11.6v38.4
			c0,2.4-0.8,4.3-2.3,5.8c-1.6,1.4-3.6,2.2-6.1,2.2c-2.6,0-4.8-0.7-6.5-2.2c-1.7-1.5-2.5-3.5-2.5-6v-101c0-2.5,0.8-4.6,2.4-6.1
			c1.6-1.6,3.7-2.3,6.4-2.3c2.5,0,4.6,0.8,6.2,2.3c1.6,1.6,2.4,3.6,2.4,6.1v7.1c2.5-5.1,6.2-9,11-11.7c4.8-2.8,10.4-4.1,16.7-4.1
			C1136.1,415.3,1142.6,417.2,1148.3,420.9z M1142.4,481.3c4.1-5.1,6.2-12.4,6.2-21.8c0-9.5-2.1-17-6.3-22.2
			c-4.2-5.3-10-7.9-17.5-7.9c-7.6,0-13.4,2.6-17.5,7.8c-4.1,5.2-6.1,12.5-6.1,22.1c0,9.5,2,16.9,6.1,22.1c4.1,5.2,9.9,7.8,17.5,7.8
			S1138.2,486.4,1142.4,481.3z"/>
		<path class="st0" d="M1188.1,500.3c-1.7-1.4-2.5-3.4-2.5-6.2V387.6c0-2.8,0.8-4.9,2.5-6.3c1.7-1.4,3.8-2.2,6.3-2.2
			c2.5,0,4.6,0.7,6.2,2.2c1.6,1.4,2.4,3.5,2.4,6.3v106.5c0,2.8-0.8,4.8-2.4,6.2c-1.6,1.4-3.7,2.1-6.2,2.1
			C1191.9,502.4,1189.8,501.7,1188.1,500.3z"/>
		<path class="st0" d="M1290.2,417.1c1.3-0.8,2.7-1.2,4.2-1.2c2.2,0,4.1,0.7,5.8,2.2c1.7,1.5,2.5,3.3,2.5,5.3c0,1.1-0.2,2.2-0.7,3.3
			l-47.9,101.7c-0.7,1.6-1.7,2.8-3,3.7c-1.3,0.9-2.7,1.3-4.2,1.3c-2.1,0-3.9-0.7-5.6-2.1c-1.7-1.4-2.5-3.1-2.5-5.2
			c0-0.9,0.3-2.1,0.9-3.4l11.9-25.3l-33.3-70.7c-0.5-0.9-0.7-2-0.7-3.1c0-2.2,0.9-4,2.8-5.5c1.8-1.5,3.9-2.2,6.2-2.2
			c3.4,0,5.9,1.6,7.4,4.8l26.7,59.3l26.5-59.1C1287.8,419.1,1288.8,417.9,1290.2,417.1z"/>
		<path class="st0" d="M1461.2,439c1.3,1.3,2,3,2,5.2v40.3c0,3.9-0.5,6.7-1.6,8.4c-1.1,1.7-3.2,3.1-6.5,4.1
			c-4.6,1.8-10.1,3.3-16.4,4.3c-6.3,1-12.6,1.6-18.8,1.6c-12.3,0-22.9-2.5-31.9-7.4c-9-4.9-15.8-12.1-20.5-21.4
			c-4.7-9.3-7.1-20.5-7.1-33.4c0-12.8,2.4-23.8,7.1-33.1c4.7-9.3,11.5-16.5,20.3-21.5c8.8-5,19.1-7.5,30.9-7.5
			c8,0,15.5,1.2,22.3,3.5c6.8,2.4,12.7,5.8,17.5,10.3c2.3,1.8,3.4,4.1,3.4,6.9c0,2.1-0.6,3.8-1.7,5.3c-1.2,1.4-2.5,2.2-4.1,2.2
			c-1,0-2-0.2-2.8-0.5c-0.8-0.3-1.8-0.9-3.1-1.7c-5.6-4.1-10.7-7-15.3-8.7c-4.6-1.7-9.9-2.5-15.9-2.5c-13.1,0-23.1,4.1-30,12.2
			c-6.9,8.1-10.3,19.9-10.3,35.3c0,15.7,3.5,27.7,10.6,35.8c7.1,8.1,17.4,12.2,31.1,12.2c9.2,0,18-1.4,26.5-4.1v-34h-22.6
			c-2.3,0-4.1-0.6-5.4-1.8c-1.3-1.2-2-2.8-2-4.9c0-2.1,0.7-3.7,2-4.9c1.3-1.2,3.1-1.8,5.4-1.8h31.5
			C1458.1,437.1,1459.8,437.7,1461.2,439z"/>
		<path class="st0" d="M1502.7,497.4c-6.3-3.6-11.1-8.6-14.5-15.3c-3.4-6.6-5.1-14.3-5.1-23c0-8.8,1.7-16.6,5.1-23.2
			c3.4-6.6,8.2-11.7,14.5-15.3c6.3-3.6,13.5-5.3,21.8-5.3c8.3,0,15.5,1.8,21.8,5.3c6.3,3.6,11.1,8.6,14.5,15.3
			c3.4,6.6,5.1,14.3,5.1,23.2c0,8.7-1.7,16.4-5.1,23c-3.4,6.6-8.2,11.7-14.5,15.3c-6.3,3.6-13.5,5.3-21.8,5.3
			C1516.2,502.7,1509,501,1502.7,497.4z M1542.2,481.4c4.1-5.1,6.1-12.5,6.1-22.2c0-9.7-2.1-17-6.2-22.2c-4.1-5.1-10-7.7-17.6-7.7
			c-7.6,0-13.4,2.6-17.6,7.7c-4.1,5.1-6.2,12.5-6.2,22.2c0,9.8,2,17.2,6.1,22.2c4.1,5.1,10,7.6,17.7,7.6
			C1532.2,489,1538.1,486.4,1542.2,481.4z"/>
		<path class="st0" d="M1599.9,497.4c-6.3-3.6-11.1-8.6-14.5-15.3c-3.4-6.6-5.1-14.3-5.1-23c0-8.8,1.7-16.6,5.1-23.2
			c3.4-6.6,8.2-11.7,14.5-15.3c6.3-3.6,13.5-5.3,21.8-5.3c8.3,0,15.5,1.8,21.8,5.3c6.3,3.6,11.1,8.6,14.5,15.3
			c3.4,6.6,5.1,14.3,5.1,23.2c0,8.7-1.7,16.4-5.1,23c-3.4,6.6-8.2,11.7-14.5,15.3c-6.3,3.6-13.5,5.3-21.8,5.3
			C1613.5,502.7,1606.2,501,1599.9,497.4z M1639.4,481.4c4.1-5.1,6.1-12.5,6.1-22.2c0-9.7-2.1-17-6.2-22.2c-4.1-5.1-10-7.7-17.6-7.7
			c-7.6,0-13.4,2.6-17.6,7.7c-4.1,5.1-6.2,12.5-6.2,22.2c0,9.8,2,17.2,6.1,22.2c4.1,5.1,10,7.6,17.7,7.6
			C1629.4,489,1635.3,486.4,1639.4,481.4z"/>
		<path class="st0" d="M1757.6,381.4c1.6,1.5,2.4,3.5,2.4,6V494c0,2.6-0.8,4.7-2.3,6.2c-1.6,1.5-3.6,2.2-6.3,2.2
			c-2.6,0-4.7-0.7-6.3-2.2c-1.6-1.5-2.3-3.6-2.3-6.2v-6.9c-2.5,5.1-6.2,8.9-11,11.6c-4.8,2.7-10.4,4.1-16.7,4.1
			c-7.2,0-13.7-1.8-19.4-5.5c-5.7-3.7-10.1-8.8-13.3-15.5c-3.2-6.7-4.7-14.3-4.7-22.9c0-8.7,1.6-16.4,4.7-22.9
			c3.2-6.6,7.6-11.6,13.2-15.2c5.6-3.6,12.1-5.3,19.5-5.3c6.3,0,11.9,1.4,16.6,4.1c4.8,2.7,8.4,6.5,10.9,11.5v-43.8
			c0-2.4,0.8-4.3,2.3-5.8c1.5-1.4,3.6-2.2,6.3-2.2C1753.8,379.1,1756,379.9,1757.6,381.4z M1736.6,481.2c4.1-5.2,6.2-12.5,6.2-22.1
			c0-9.5-2-16.9-6.1-22.1c-4.1-5.2-9.9-7.8-17.5-7.8s-13.5,2.6-17.7,7.7c-4.2,5.1-6.3,12.4-6.3,21.8c0,9.4,2.1,16.8,6.4,22.2
			c4.3,5.3,10.1,8,17.6,8C1726.6,489,1732.4,486.4,1736.6,481.2z"/>
		<path class="st0" d="M789.7,671.6c-1.6-1.5-2.3-3.6-2.3-6.3V561c0-2.6,0.8-4.7,2.3-6.3s3.7-2.3,6.5-2.3H830
			c19.7,0,34.9,5.3,45.7,15.9c10.8,10.6,16.2,25.5,16.2,44.8s-5.4,34.3-16.2,44.9c-10.8,10.6-26,15.9-45.7,15.9h-33.8
			C793.4,673.9,791.3,673.1,789.7,671.6z M829,659.1c29.9,0,44.8-15.3,44.8-46c0-30.6-14.9-45.9-44.8-45.9h-23.8v91.9H829z"/>
		<path class="st0" d="M983.8,654.6c1,1.3,1.6,2.9,1.6,4.8c0,3.3-2.1,6.2-6.2,8.4c-4,2.3-8.4,4.1-13.2,5.3
			c-4.8,1.3-9.3,1.9-13.7,1.9c-13.3,0-23.9-3.9-31.5-11.6c-7.7-7.8-11.5-18.4-11.5-31.8c0-8.6,1.7-16.3,5.1-22.9
			c3.4-6.7,8.2-11.8,14.3-15.5c6.1-3.7,13.1-5.5,20.9-5.5c11.3,0,20.2,3.6,26.7,10.9c6.5,7.2,9.8,17,9.8,29.3c0,4.6-2.1,6.9-6.2,6.9
			h-53.3c1.1,17.8,9.7,26.7,25.7,26.7c4.3,0,7.9-0.6,11-1.7c3.1-1.1,6.4-2.6,9.8-4.5c0.3-0.2,1.3-0.7,2.8-1.5
			c1.5-0.7,2.8-1.1,3.9-1.1C981.4,652.7,982.7,653.4,983.8,654.6z M933.8,606.9c-4,4.3-6.4,10.2-7.2,17.9H971
			c-0.3-7.8-2.3-13.8-5.9-18c-3.6-4.2-8.7-6.3-15.3-6.3C943.1,600.5,937.8,602.6,933.8,606.9z"/>
		<path class="st0" d="M1080.6,621.7v44.8c0,2.6-0.8,4.7-2.3,6.1c-1.6,1.4-3.7,2.2-6.5,2.2c-2.6,0-4.7-0.7-6.3-2.2
			c-1.6-1.5-2.3-3.5-2.3-6v-44c0-7.1-1.4-12.4-4.2-15.7c-2.8-3.3-7.2-5-13.2-5c-7,0-12.6,2.2-16.9,6.6c-4.3,4.4-6.4,10.2-6.4,17.6
			v40.5c0,2.5-0.8,4.5-2.3,6c-1.6,1.5-3.6,2.2-6.3,2.2c-2.6,0-4.8-0.7-6.4-2.2c-1.6-1.5-2.4-3.5-2.4-6v-70.2c0-2.4,0.8-4.4,2.5-5.9
			c1.7-1.6,3.8-2.3,6.3-2.3c2.5,0,4.5,0.7,6,2.2c1.5,1.5,2.2,3.4,2.2,5.9v7.1c2.8-5.1,6.6-8.9,11.6-11.5c4.9-2.6,10.5-4,16.7-4
			C1070.6,587.7,1080.6,599,1080.6,621.7z"/>
		<path class="st0" d="M1151.1,663.5c1.1,1.1,1.6,2.6,1.6,4.6c0,2.3-0.9,4.1-2.7,5.3c-1.8,1.2-4.4,1.7-7.8,1.5l-4.7-0.3
			c-9.3-0.7-16.3-3.5-20.9-8.5c-4.6-5-6.9-12.4-6.9-22.2v-40.5h-10.3c-5.1,0-7.6-2.2-7.6-6.7c0-2.1,0.7-3.7,2-4.9
			c1.3-1.2,3.2-1.8,5.6-1.8h10.3V572c0-2.6,0.8-4.7,2.3-6.2c1.5-1.5,3.6-2.2,6.3-2.2c2.6,0,4.8,0.7,6.4,2.2c1.6,1.5,2.4,3.6,2.4,6.2
			v17.8h17.1c2.4,0,4.3,0.6,5.6,1.8c1.3,1.2,2,2.8,2,4.9c0,2.2-0.7,3.9-2,5c-1.3,1.2-3.2,1.7-5.6,1.7h-17.1V645
			c0,5.4,1.1,9.4,3.4,11.9c2.2,2.5,5.7,4,10.3,4.3l4.8,0.3C1148.2,661.7,1150,662.4,1151.1,663.5z"/>
		<path class="st0" d="M1166.1,568.4c-2-1.8-2.9-4.3-2.9-7.2c0-3,1-5.4,2.9-7.2c2-1.8,4.6-2.7,7.9-2.7c3.2,0,5.8,0.9,7.8,2.7
			c2,1.8,3,4.2,3,7.2c0,3-1,5.4-2.9,7.2c-2,1.8-4.6,2.8-7.9,2.8C1170.7,571.2,1168.1,570.3,1166.1,568.4z M1167.8,672.7
			c-1.7-1.4-2.5-3.4-2.5-6.2v-70c0-2.8,0.8-4.9,2.5-6.3c1.7-1.4,3.8-2.2,6.3-2.2c2.5,0,4.6,0.7,6.2,2.2c1.6,1.4,2.4,3.5,2.4,6.3v70
			c0,2.8-0.8,4.8-2.4,6.2c-1.6,1.4-3.7,2.1-6.2,2.1C1171.5,674.8,1169.4,674.1,1167.8,672.7z"/>
		<path class="st0" d="M1207.5,667.9c-2.1-1.3-3.5-2.6-4.4-4c-0.9-1.4-1.3-2.9-1.3-4.7c0-1.8,0.5-3.4,1.6-4.7c1-1.3,2.4-1.9,4-1.9
			c1.5,0,3.8,0.9,7.1,2.8c3.4,1.8,6.8,3.3,10.1,4.5c3.3,1.2,7.4,1.7,12.3,1.7c5.5,0,9.8-1,12.9-2.9c3.1-2,4.7-4.7,4.7-8.3
			c0-2.3-0.6-4.1-1.8-5.5c-1.2-1.4-3.3-2.6-6.3-3.7c-3-1.1-7.4-2.3-13.3-3.5c-10.1-2.2-17.4-5.1-21.8-8.9c-4.4-3.7-6.6-8.8-6.6-15.3
			c0-4.9,1.4-9.4,4.3-13.4c2.9-4,6.8-7,11.9-9.2c5.1-2.2,10.8-3.3,17.2-3.3c4.6,0,9.1,0.6,13.4,1.8c4.4,1.2,8.2,3,11.5,5.3
			c3.8,2.5,5.7,5.5,5.7,8.8c0,1.8-0.5,3.4-1.6,4.7c-1.1,1.3-2.4,1.9-3.9,1.9c-1,0-2.1-0.2-3.1-0.7c-1-0.5-2.4-1.2-4.1-2.2
			c-3.1-1.8-6-3.3-8.7-4.3c-2.7-1-6.1-1.6-10.1-1.6c-4.8,0-8.7,1-11.6,3.1c-2.9,2.1-4.4,4.9-4.4,8.4c0,3.2,1.3,5.7,4.1,7.5
			c2.7,1.8,7.8,3.5,15.3,5.1c7.7,1.6,13.7,3.4,18.1,5.5c4.4,2.1,7.5,4.6,9.4,7.7c1.9,3,2.8,6.9,2.8,11.6c0,7.5-3.1,13.5-9.4,18
			c-6.3,4.5-14.6,6.8-25.1,6.8C1224.6,675.1,1215,672.7,1207.5,667.9z"/>
		<path class="st0" d="M1335.8,663.5c1.1,1.1,1.6,2.6,1.6,4.6c0,2.3-0.9,4.1-2.7,5.3c-1.8,1.2-4.4,1.7-7.8,1.5l-4.7-0.3
			c-9.3-0.7-16.3-3.5-20.9-8.5c-4.6-5-6.9-12.4-6.9-22.2v-40.5h-10.3c-5.1,0-7.6-2.2-7.6-6.7c0-2.1,0.7-3.7,2-4.9
			c1.3-1.2,3.2-1.8,5.6-1.8h10.3V572c0-2.6,0.8-4.7,2.3-6.2c1.5-1.5,3.6-2.2,6.3-2.2c2.6,0,4.8,0.7,6.4,2.2c1.6,1.5,2.4,3.6,2.4,6.2
			v17.8h17.1c2.4,0,4.3,0.6,5.6,1.8c1.3,1.2,2,2.8,2,4.9c0,2.2-0.7,3.9-2,5c-1.3,1.2-3.2,1.7-5.6,1.7H1312V645
			c0,5.4,1.1,9.4,3.4,11.9c2.2,2.5,5.7,4,10.3,4.3l4.8,0.3C1332.9,661.7,1334.8,662.4,1335.8,663.5z"/>
		<path class="st0" d="M1402.5,595.1c0,2.5-0.6,4.4-1.9,5.7c-1.3,1.3-3.4,2-6.6,2.2l-5.2,0.5c-7.2,0.7-12.6,3.2-16.1,7.6
			c-3.5,4.4-5.3,9.7-5.3,15.9v39.5c0,2.8-0.8,4.8-2.4,6.2c-1.6,1.4-3.7,2.1-6.2,2.1c-2.5,0-4.6-0.7-6.3-2.1
			c-1.7-1.4-2.5-3.4-2.5-6.2v-70.2c0-2.6,0.8-4.7,2.5-6.1c1.7-1.4,3.8-2.2,6.3-2.2c2.3,0,4.2,0.7,5.8,2.2c1.5,1.4,2.3,3.4,2.3,5.9
			v8.3c2.3-5.1,5.6-8.9,10-11.5c4.4-2.6,9.3-4.2,14.8-4.7l2.4-0.2C1399.7,587.7,1402.5,590.1,1402.5,595.1z"/>
		<path class="st0" d="M1481.2,589.5c1.3-0.8,2.7-1.2,4.2-1.2c2.2,0,4.1,0.7,5.8,2.2c1.7,1.5,2.5,3.3,2.5,5.3c0,1.2-0.2,2.2-0.7,3.3
			l-47.9,101.7c-0.7,1.6-1.7,2.8-3,3.7c-1.3,0.9-2.7,1.3-4.2,1.3c-2.1,0-3.9-0.7-5.6-2.1c-1.7-1.4-2.5-3.1-2.5-5.2
			c0-0.9,0.3-2.1,0.9-3.4l11.9-25.3l-33.3-70.7c-0.5-0.9-0.7-2-0.7-3.1c0-2.2,0.9-4,2.8-5.5c1.8-1.5,3.9-2.2,6.2-2.2
			c3.4,0,5.9,1.6,7.4,4.8l26.7,59.3l26.5-59.1C1478.8,591.5,1479.8,590.3,1481.2,589.5z"/>
	</g>
	<g>
		<g>
			<g>
				<path class="st0" d="M457.2,690.6c-17.3,0-25-19.3-31.8-36.4c-5.5-13.9-11.3-28.2-19.8-28.2c-8.5,0-14.3,14.4-19.8,28.2
					c-6.8,17-14.5,36.4-31.8,36.4c-22,0-45.4-48.9-54.4-69.9c-18.7-43.4-29.8-90.5-29.8-125.9c0-22.4,4.3-40.1,12.7-52.9
					c10-15,25.3-22.7,45.6-22.7c14.4,0,28.2,6.9,41.6,13.6c12.6,6.3,24.5,12.2,35.8,12.2c11.3,0,23.2-5.9,35.8-12.2
					c13.4-6.7,27.3-13.6,41.7-13.6c20.2,0,35.5,7.6,45.5,22.7c8.4,12.7,12.7,30.5,12.7,52.9c0,35.5-11.1,82.6-29.7,125.9
					C502.5,641.8,479.2,690.6,457.2,690.6z M405.6,613.1c17.3,0,25,19.3,31.8,36.4c5.5,13.9,11.3,28.2,19.8,28.2
					c6.6,0,24.1-19.3,42.4-62.1c17.9-41.9,28.6-87,28.6-120.8c0-19.8-3.5-35.2-10.5-45.7c-7.5-11.4-18.9-16.9-34.7-16.9
					c-11.4,0-23.3,6-36,12.3c-13.4,6.7-27.2,13.6-41.6,13.6c-14.4,0-28.2-6.9-41.6-13.6c-12.6-6.3-24.5-12.2-35.8-12.2
					c-15.9,0-27.3,5.5-34.9,16.9c-7,10.6-10.6,25.9-10.6,45.7c0,33.8,10.7,79,28.7,120.8c18.4,42.8,36,62.1,42.5,62.1
					c8.5,0,14.3-14.4,19.8-28.2C380.6,632.4,388.3,613.1,405.6,613.1z"/>
			</g>
		</g>
		<g>
			<g>
				<path class="st0" d="M405.5,587.3c-42.3,0-56.9-28.2-57.5-29.4c-1.6-3.2-0.3-7.1,2.9-8.7c3.2-1.6,7-0.3,8.6,2.9
					c0.5,1,12,22.3,45.9,22.3c34,0,45.5-21.4,45.9-22.3c1.6-3.2,5.5-4.4,8.7-2.8c3.2,1.6,4.4,5.5,2.9,8.6
					C462.4,559,447.8,587.3,405.5,587.3z"/>
			</g>
		</g>
		<g>
			<g>
				<g>
					<g>
						<path class="st2" d="M405.5,347.8c-4.1,0-7.5-3.3-7.5-7.5V303c0-4.1,3.3-7.5,7.5-7.5c4.1,0,7.5,3.3,7.5,7.5v37.4
							C413,344.5,409.6,347.8,405.5,347.8z"/>
					</g>
				</g>
			</g>
			<g>
				<g>
					<g>
						<path class="st2" d="M332.6,361.4c-3,0-5.8-1.8-7-4.8l-13.5-34.8c-1.5-3.8,0.4-8.2,4.3-9.7c3.8-1.5,8.2,0.4,9.7,4.3l13.5,34.8
							c1.5,3.8-0.4,8.2-4.3,9.7C334.5,361.3,333.5,361.4,332.6,361.4z"/>
					</g>
				</g>
			</g>
			<g>
				<g>
					<g>
						<path class="st2" d="M269.6,400.4c-2,0-4-0.8-5.5-2.4l-25.2-27.6c-2.8-3-2.6-7.8,0.5-10.6c3-2.8,7.8-2.6,10.6,0.5l25.2,27.6
							c2.8,3,2.6,7.8-0.5,10.6C273.2,399.8,271.4,400.4,269.6,400.4z"/>
					</g>
				</g>
			</g>
			<g>
				<g>
					<g>
						<path class="st2" d="M224.9,459.6c-1.1,0-2.3-0.3-3.3-0.8l-33.4-16.6c-3.7-1.8-5.2-6.3-3.4-10c1.8-3.7,6.3-5.2,10-3.4
							l33.4,16.6c3.7,1.8,5.2,6.3,3.4,10C230.3,458.1,227.7,459.6,224.9,459.6z"/>
					</g>
				</g>
			</g>
			<g>
				<g>
					<g>
						<path class="st2" d="M204.7,530.9c-0.2,0-0.5,0-0.7,0l-37.2-3.4c-4.1-0.4-7.1-4-6.7-8.1c0.4-4.1,4-7.1,8.1-6.7l37.2,3.4
							c4.1,0.4,7.1,4,6.7,8.1C211.7,528,208.5,530.9,204.7,530.9z"/>
					</g>
				</g>
			</g>
			<g>
				<g>
					<g>
						<path class="st2" d="M175.6,614.9c-3.3,0-6.2-2.1-7.2-5.4c-1.1-4,1.2-8.1,5.1-9.2l35.9-10.2c4-1.1,8.1,1.2,9.2,5.1
							c1.1,4-1.2,8.1-5.1,9.2l-35.9,10.2C176.9,614.8,176.3,614.9,175.6,614.9z"/>
					</g>
				</g>
			</g>
			<g>
				<g>
					<g>
						<path class="st2" d="M214.7,693.6c-2.3,0-4.5-1-6-3c-2.5-3.3-1.8-8,1.5-10.5l29.8-22.5c3.3-2.5,8-1.8,10.5,1.5
							c2.5,3.3,1.8,8-1.5,10.5l-29.8,22.5C217.9,693.1,216.3,693.6,214.7,693.6z"/>
					</g>
				</g>
			</g>
			<g>
				<g>
					<g>
						<path class="st2" d="M279.7,752.8c-1.3,0-2.7-0.4-3.9-1.1c-3.5-2.2-4.6-6.8-2.4-10.3l19.7-31.8c2.2-3.5,6.8-4.6,10.3-2.4
							c3.5,2.2,4.6,6.8,2.4,10.3L286,749.2C284.6,751.5,282.2,752.8,279.7,752.8z"/>
					</g>
				</g>
			</g>
			<g>
				<g>
					<g>
						<path class="st2" d="M361.6,784.5c-0.5,0-0.9,0-1.4-0.1c-4.1-0.8-6.7-4.7-6-8.7l6.9-36.7c0.8-4.1,4.7-6.7,8.7-6
							c4.1,0.8,6.7,4.7,6,8.7l-6.9,36.7C368.3,782,365.1,784.5,361.6,784.5z"/>
					</g>
				</g>
			</g>
			<g>
				<g>
					<g>
						<path class="st2" d="M449.4,784.5c-3.5,0-6.7-2.5-7.3-6.1l-6.9-36.7c-0.8-4.1,1.9-8,6-8.7c4.1-0.8,8,1.9,8.7,6l6.9,36.7
							c0.8,4.1-1.9,8-6,8.7C450.3,784.5,449.9,784.5,449.4,784.5z"/>
					</g>
				</g>
			</g>
			<g>
				<g>
					<g>
						<path class="st2" d="M531.4,752.8c-2.5,0-4.9-1.3-6.4-3.5l-19.7-31.8c-2.2-3.5-1.1-8.1,2.4-10.3c3.5-2.2,8.1-1.1,10.3,2.4
							l19.7,31.8c2.2,3.5,1.1,8.1-2.4,10.3C534.1,752.4,532.7,752.8,531.4,752.8z"/>
					</g>
				</g>
			</g>
			<g>
				<g>
					<g>
						<path class="st2" d="M596.3,693.6c-1.6,0-3.1-0.5-4.5-1.5L562,669.6c-3.3-2.5-3.9-7.2-1.5-10.5c2.5-3.3,7.2-3.9,10.5-1.5
							l29.8,22.5c3.3,2.5,3.9,7.2,1.5,10.5C600.8,692.5,598.5,693.6,596.3,693.6z"/>
					</g>
				</g>
			</g>
			<g>
				<g>
					<g>
						<path class="st2" d="M635.5,614.9c-0.7,0-1.4-0.1-2-0.3l-35.9-10.2c-4-1.1-6.3-5.3-5.1-9.2c1.1-4,5.3-6.3,9.2-5.1l35.9,10.2
							c4,1.1,6.3,5.3,5.1,9.2C641.7,612.8,638.7,614.9,635.5,614.9z"/>
					</g>
				</g>
			</g>
			<g>
				<g>
					<g>
						<path class="st2" d="M606.4,530.9c-3.8,0-7.1-2.9-7.4-6.8c-0.4-4.1,2.6-7.7,6.8-8.1l37.2-3.4c4.1-0.4,7.7,2.6,8.1,6.7
							c0.4,4.1-2.6,7.7-6.8,8.1l-37.2,3.4C606.8,530.9,606.6,530.9,606.4,530.9z"/>
					</g>
				</g>
			</g>
			<g>
				<g>
					<g>
						<path class="st2" d="M586.1,459.6c-2.7,0-5.4-1.5-6.7-4.1c-1.8-3.7-0.3-8.2,3.4-10l33.4-16.6c3.7-1.8,8.2-0.3,10,3.4
							c1.8,3.7,0.3,8.2-3.4,10l-33.4,16.6C588.3,459.3,587.2,459.6,586.1,459.6z"/>
					</g>
				</g>
			</g>
			<g>
				<g>
					<g>
						<path class="st2" d="M541.4,400.4c-1.8,0-3.6-0.6-5-1.9c-3-2.8-3.3-7.5-0.5-10.6l25.2-27.6c2.8-3,7.5-3.3,10.6-0.5
							c3,2.8,3.3,7.5,0.5,10.6L546.9,398C545.5,399.6,543.4,400.4,541.4,400.4z"/>
					</g>
				</g>
			</g>
			<g>
				<g>
					<g>
						<path class="st2" d="M478.4,361.4c-0.9,0-1.8-0.2-2.7-0.5c-3.8-1.5-5.8-5.8-4.3-9.7l13.5-34.8c1.5-3.8,5.8-5.8,9.7-4.3
							c3.8,1.5,5.8,5.8,4.3,9.7l-13.5,34.8C484.2,359.6,481.4,361.4,478.4,361.4z"/>
					</g>
				</g>
			</g>
		</g>
	</g>
</g>
<g>
	<g>
		<path class="st0" d="M2397.1-59.3c-3.2-1-5.8-2.4-7.7-4.1c-0.9-0.8-1.3-1.7-1.3-2.9c0-0.8,0.2-1.6,0.7-2.2c0.5-0.6,1-0.9,1.7-0.9
			c0.7,0,1.5,0.3,2.4,0.9c4.2,3.1,9,4.7,14.3,4.7c3.8,0,6.7-0.7,8.7-2.1c2-1.4,3-3.4,3-6.1c0-2.1-0.9-3.6-2.8-4.7c-1.9-1-4.9-2-9-3
			c-3.9-0.8-7.2-1.8-9.7-2.9c-2.5-1.1-4.5-2.5-6-4.4c-1.4-1.9-2.2-4.2-2.2-7.1c0-2.9,0.8-5.4,2.4-7.6c1.6-2.2,3.8-4,6.6-5.2
			c2.8-1.2,6-1.9,9.7-1.9c3.3,0,6.4,0.5,9.2,1.4c2.8,0.9,5.2,2.3,7.2,4.2c0.9,0.8,1.4,1.8,1.4,2.9c0,0.8-0.2,1.5-0.7,2.1
			c-0.5,0.6-1.1,0.9-1.7,0.9c-0.6,0-1.4-0.3-2.3-0.9c-2.2-1.6-4.2-2.8-6.1-3.6c-1.9-0.7-4.2-1.1-6.9-1.1c-3.6,0-6.4,0.7-8.5,2.2
			c-2,1.5-3,3.5-3,6.2c0,2.3,0.9,4,2.7,5.1c1.8,1.2,4.7,2.2,8.6,3.1c4.1,0.9,7.5,1.9,10,2.9c2.6,1,4.6,2.4,6.1,4.2s2.3,4,2.3,6.8
			c0,2.8-0.8,5.3-2.4,7.5c-1.6,2.2-3.8,3.9-6.6,5.1c-2.8,1.2-6.1,1.8-9.8,1.8C2403.7-57.8,2400.3-58.3,2397.1-59.3z"/>
		<path class="st0" d="M2434.6-101.6c-0.8-0.8-1.2-1.7-1.2-3c0-1.2,0.4-2.2,1.2-2.9c0.8-0.7,1.9-1.1,3.2-1.1c1.3,0,2.4,0.4,3.2,1.1
			c0.8,0.7,1.2,1.7,1.2,2.9c0,1.2-0.4,2.2-1.2,3c-0.8,0.8-1.9,1.1-3.2,1.1C2436.4-100.4,2435.3-100.8,2434.6-101.6z M2435.2-58.9
			c-0.7-0.6-1-1.4-1-2.5v-28.6c0-1.1,0.3-2,1-2.6c0.7-0.6,1.5-0.9,2.6-0.9c1,0,1.9,0.3,2.5,0.9c0.7,0.6,1,1.4,1,2.6v28.6
			c0,1.1-0.3,2-1,2.5c-0.7,0.6-1.5,0.8-2.5,0.8C2436.8-58,2435.9-58.3,2435.2-58.9z"/>
		<path class="st0" d="M2502.3-79.8v18.3c0,1.1-0.3,1.9-1,2.5c-0.7,0.6-1.5,0.9-2.6,0.9c-1,0-1.9-0.3-2.5-0.9c-0.7-0.6-1-1.4-1-2.5
			v-18.3c0-2.9-0.5-4.9-1.6-6.2c-1-1.3-2.7-1.9-4.9-1.9c-2.6,0-4.6,0.9-6.1,2.6c-1.5,1.8-2.3,4.2-2.3,7.2v16.6c0,1.1-0.3,1.9-1,2.5
			c-0.7,0.6-1.5,0.9-2.6,0.9c-1,0-1.9-0.3-2.5-0.9c-0.7-0.6-1-1.4-1-2.5v-18.3c0-2.9-0.5-4.9-1.6-6.2c-1-1.3-2.7-1.9-4.9-1.9
			c-2.6,0-4.6,0.9-6.2,2.6c-1.5,1.8-2.3,4.2-2.3,7.2v16.6c0,1.1-0.3,1.9-1,2.5c-0.7,0.6-1.5,0.9-2.5,0.9c-1,0-1.9-0.3-2.6-0.9
			s-1-1.4-1-2.5v-28.7c0-1,0.4-1.9,1.1-2.5c0.7-0.6,1.6-0.9,2.5-0.9c1,0,1.8,0.3,2.4,0.9c0.6,0.6,1,1.4,1,2.4v2.6
			c1-2,2.5-3.5,4.3-4.5c1.8-1,3.9-1.6,6.3-1.6c2.6,0,4.8,0.5,6.5,1.6c1.7,1.1,3,2.8,3.8,5c1-2,2.6-3.6,4.6-4.8
			c2-1.2,4.3-1.8,6.9-1.8C2498.5-93.7,2502.3-89,2502.3-79.8z"/>
		<path class="st0" d="M2538.4-91.4c2.3,1.5,4.1,3.6,5.4,6.3c1.3,2.7,1.9,5.9,1.9,9.4c0,3.5-0.6,6.6-1.9,9.3
			c-1.3,2.7-3.1,4.7-5.4,6.2c-2.3,1.5-5,2.2-8,2.2c-2.6,0-4.9-0.6-6.8-1.7c-2-1.1-3.5-2.7-4.5-4.8v15.7c0,1-0.3,1.8-1,2.4
			c-0.6,0.6-1.5,0.9-2.5,0.9c-1.1,0-2-0.3-2.6-0.9c-0.7-0.6-1-1.4-1-2.5v-41.3c0-1,0.3-1.9,1-2.5c0.7-0.6,1.5-1,2.6-1
			c1,0,1.9,0.3,2.5,1c0.7,0.6,1,1.5,1,2.5v2.9c1-2.1,2.5-3.7,4.5-4.8c2-1.1,4.3-1.7,6.8-1.7C2533.5-93.7,2536.1-92.9,2538.4-91.4z
			 M2536-66.7c1.7-2.1,2.5-5.1,2.5-8.9c0-3.9-0.9-6.9-2.6-9.1c-1.7-2.2-4.1-3.2-7.2-3.2c-3.1,0-5.5,1.1-7.2,3.2
			c-1.7,2.1-2.5,5.1-2.5,9c0,3.9,0.8,6.9,2.5,9c1.7,2.1,4.1,3.2,7.2,3.2S2534.3-64.6,2536-66.7z"/>
		<path class="st0" d="M2554.7-58.9c-0.7-0.6-1-1.4-1-2.5V-105c0-1.1,0.3-2,1-2.6c0.7-0.6,1.5-0.9,2.6-0.9c1,0,1.9,0.3,2.5,0.9
			c0.7,0.6,1,1.4,1,2.6v43.6c0,1.1-0.3,2-1,2.5s-1.5,0.8-2.5,0.8C2556.3-58,2555.4-58.3,2554.7-58.9z"/>
		<path class="st0" d="M2596.5-92.9c0.5-0.3,1.1-0.5,1.7-0.5c0.9,0,1.7,0.3,2.4,0.9c0.7,0.6,1,1.3,1,2.2c0,0.5-0.1,0.9-0.3,1.3
			l-19.6,41.6c-0.3,0.7-0.7,1.2-1.2,1.5c-0.5,0.4-1.1,0.5-1.7,0.5c-0.8,0-1.6-0.3-2.3-0.8c-0.7-0.6-1-1.3-1-2.1
			c0-0.4,0.1-0.8,0.4-1.4l4.9-10.4L2567-89c-0.2-0.4-0.3-0.8-0.3-1.3c0-0.9,0.4-1.6,1.1-2.3c0.8-0.6,1.6-0.9,2.5-0.9
			c1.4,0,2.4,0.7,3,2l10.9,24.3l10.9-24.2C2595.5-92.1,2595.9-92.6,2596.5-92.9z"/>
		<path class="st0" d="M2666.4-84c0.5,0.5,0.8,1.2,0.8,2.1v16.5c0,1.6-0.2,2.7-0.7,3.5c-0.4,0.7-1.3,1.3-2.6,1.7
			c-1.9,0.8-4.1,1.3-6.7,1.8c-2.6,0.4-5.1,0.6-7.7,0.6c-5,0-9.4-1-13-3c-3.7-2-6.5-4.9-8.4-8.7c-1.9-3.8-2.9-8.4-2.9-13.7
			c0-5.2,1-9.7,2.9-13.5c1.9-3.8,4.7-6.7,8.3-8.8c3.6-2,7.8-3.1,12.7-3.1c3.3,0,6.3,0.5,9.1,1.4c2.8,1,5.2,2.4,7.2,4.2
			c0.9,0.8,1.4,1.7,1.4,2.8c0,0.8-0.2,1.6-0.7,2.2c-0.5,0.6-1,0.9-1.7,0.9c-0.4,0-0.8-0.1-1.1-0.2s-0.8-0.4-1.3-0.7
			c-2.3-1.7-4.4-2.9-6.3-3.6c-1.9-0.7-4-1-6.5-1c-5.4,0-9.4,1.7-12.3,5c-2.8,3.3-4.2,8.1-4.2,14.4c0,6.4,1.4,11.3,4.3,14.6
			c2.9,3.3,7.1,5,12.7,5c3.8,0,7.4-0.6,10.9-1.7v-13.9h-9.2c-0.9,0-1.7-0.2-2.2-0.7c-0.5-0.5-0.8-1.2-0.8-2c0-0.8,0.3-1.5,0.8-2
			c0.5-0.5,1.3-0.7,2.2-0.7h12.9C2665.1-84.8,2665.9-84.5,2666.4-84z"/>
		<path class="st0" d="M2683.4-60.1c-2.6-1.5-4.5-3.5-5.9-6.2c-1.4-2.7-2.1-5.8-2.1-9.4c0-3.6,0.7-6.8,2.1-9.5
			c1.4-2.7,3.4-4.8,5.9-6.2c2.6-1.5,5.5-2.2,8.9-2.2s6.4,0.7,8.9,2.2c2.6,1.5,4.5,3.5,5.9,6.2c1.4,2.7,2.1,5.9,2.1,9.5
			c0,3.6-0.7,6.7-2.1,9.4c-1.4,2.7-3.4,4.8-5.9,6.2c-2.6,1.5-5.5,2.2-8.9,2.2S2686-58.6,2683.4-60.1z M2699.5-66.7
			c1.7-2.1,2.5-5.1,2.5-9.1c0-3.9-0.8-7-2.5-9.1c-1.7-2.1-4.1-3.1-7.2-3.1s-5.5,1-7.2,3.1c-1.7,2.1-2.5,5.1-2.5,9.1
			c0,4,0.8,7,2.5,9.1c1.7,2.1,4.1,3.1,7.2,3.1S2697.9-64.6,2699.5-66.7z"/>
		<path class="st0" d="M2723.2-60.1c-2.6-1.5-4.5-3.5-5.9-6.2c-1.4-2.7-2.1-5.8-2.1-9.4c0-3.6,0.7-6.8,2.1-9.5
			c1.4-2.7,3.4-4.8,5.9-6.2c2.6-1.5,5.5-2.2,8.9-2.2c3.4,0,6.4,0.7,8.9,2.2c2.6,1.5,4.5,3.5,5.9,6.2c1.4,2.7,2.1,5.9,2.1,9.5
			c0,3.6-0.7,6.7-2.1,9.4c-1.4,2.7-3.4,4.8-5.9,6.2c-2.6,1.5-5.5,2.2-8.9,2.2C2728.7-57.9,2725.7-58.6,2723.2-60.1z M2739.3-66.7
			c1.7-2.1,2.5-5.1,2.5-9.1c0-3.9-0.8-7-2.5-9.1c-1.7-2.1-4.1-3.1-7.2-3.1c-3.1,0-5.5,1-7.2,3.1c-1.7,2.1-2.5,5.1-2.5,9.1
			c0,4,0.8,7,2.5,9.1c1.7,2.1,4.1,3.1,7.2,3.1C2735.2-63.5,2737.6-64.6,2739.3-66.7z"/>
		<path class="st0" d="M2787.6-107.5c0.7,0.6,1,1.4,1,2.5v43.6c0,1.1-0.3,1.9-1,2.5s-1.5,0.9-2.6,0.9c-1.1,0-1.9-0.3-2.6-0.9
			s-1-1.5-1-2.5v-2.8c-1,2.1-2.5,3.7-4.5,4.8c-2,1.1-4.3,1.7-6.8,1.7c-3,0-5.6-0.8-7.9-2.3c-2.3-1.5-4.1-3.6-5.4-6.3
			c-1.3-2.7-1.9-5.9-1.9-9.4c0-3.6,0.6-6.7,1.9-9.4c1.3-2.7,3.1-4.7,5.4-6.2c2.3-1.5,5-2.2,8-2.2c2.6,0,4.9,0.6,6.8,1.7
			c2,1.1,3.4,2.7,4.5,4.7v-17.9c0-1,0.3-1.8,1-2.4c0.6-0.6,1.5-0.9,2.6-0.9C2786.1-108.5,2787-108.2,2787.6-107.5z M2779-66.7
			c1.7-2.1,2.5-5.1,2.5-9c0-3.9-0.8-6.9-2.5-9c-1.7-2.1-4.1-3.2-7.2-3.2s-5.5,1-7.2,3.1c-1.7,2.1-2.6,5.1-2.6,8.9
			c0,3.9,0.9,6.9,2.6,9.1c1.7,2.2,4.1,3.3,7.2,3.3C2775-63.5,2777.3-64.6,2779-66.7z"/>
		<path class="st0" d="M2448.3,11.2c-0.6-0.6-1-1.5-1-2.6v-42.7c0-1.1,0.3-1.9,1-2.6c0.6-0.6,1.5-1,2.6-1h13.8
			c8,0,14.3,2.2,18.7,6.5c4.4,4.3,6.6,10.4,6.6,18.3s-2.2,14-6.6,18.4c-4.4,4.3-10.6,6.5-18.7,6.5h-13.8
			C2449.8,12.1,2448.9,11.8,2448.3,11.2z M2464.3,6c12.2,0,18.3-6.3,18.3-18.8c0-12.5-6.1-18.8-18.3-18.8h-9.7V6H2464.3z"/>
		<path class="st0" d="M2527.7,4.2c0.4,0.5,0.6,1.2,0.6,2c0,1.4-0.8,2.5-2.5,3.5c-1.6,0.9-3.4,1.7-5.4,2.2c-2,0.5-3.8,0.8-5.6,0.8
			c-5.5,0-9.8-1.6-12.9-4.8c-3.1-3.2-4.7-7.5-4.7-13c0-3.5,0.7-6.7,2.1-9.4c1.4-2.7,3.3-4.8,5.9-6.3c2.5-1.5,5.4-2.3,8.6-2.3
			c4.6,0,8.2,1.5,10.9,4.4c2.7,3,4,7,4,12c0,1.9-0.8,2.8-2.5,2.8h-21.8c0.5,7.3,4,10.9,10.5,10.9c1.7,0,3.2-0.2,4.5-0.7
			c1.3-0.5,2.6-1.1,4-1.8c0.1-0.1,0.5-0.3,1.2-0.6c0.6-0.3,1.2-0.5,1.6-0.5C2526.7,3.4,2527.2,3.7,2527.7,4.2z M2507.2-15.3
			c-1.6,1.7-2.6,4.2-3,7.3h18.2c-0.1-3.2-1-5.7-2.4-7.4c-1.5-1.7-3.6-2.6-6.2-2.6C2511-17.9,2508.9-17.1,2507.2-15.3z"/>
		<path class="st0" d="M2567.3-9.3V9.1c0,1.1-0.3,1.9-1,2.5c-0.6,0.6-1.5,0.9-2.6,0.9c-1.1,0-1.9-0.3-2.6-0.9c-0.6-0.6-1-1.4-1-2.5
			v-18c0-2.9-0.6-5.1-1.7-6.4c-1.2-1.4-3-2-5.4-2c-2.9,0-5.2,0.9-6.9,2.7c-1.7,1.8-2.6,4.2-2.6,7.2V9.1c0,1-0.3,1.9-1,2.5
			c-0.6,0.6-1.5,0.9-2.6,0.9c-1.1,0-2-0.3-2.6-0.9c-0.7-0.6-1-1.4-1-2.5v-28.7c0-1,0.3-1.8,1-2.4c0.7-0.6,1.5-1,2.6-1
			c1,0,1.9,0.3,2.5,0.9c0.6,0.6,0.9,1.4,0.9,2.4v2.9c1.1-2.1,2.7-3.6,4.7-4.7c2-1.1,4.3-1.6,6.8-1.6
			C2563.2-23.1,2567.3-18.5,2567.3-9.3z"/>
		<path class="st0" d="M2596.1,7.8c0.4,0.4,0.7,1.1,0.7,1.9c0,0.9-0.4,1.7-1.1,2.2c-0.7,0.5-1.8,0.7-3.2,0.6l-1.9-0.1
			c-3.8-0.3-6.7-1.4-8.5-3.5c-1.9-2-2.8-5.1-2.8-9.1v-16.6h-4.2c-2.1,0-3.1-0.9-3.1-2.8c0-0.8,0.3-1.5,0.8-2
			c0.5-0.5,1.3-0.7,2.3-0.7h4.2v-7.3c0-1.1,0.3-1.9,1-2.5c0.6-0.6,1.5-0.9,2.6-0.9c1.1,0,2,0.3,2.6,0.9c0.7,0.6,1,1.5,1,2.5v7.3h7
			c1,0,1.8,0.2,2.3,0.7c0.5,0.5,0.8,1.2,0.8,2c0,0.9-0.3,1.6-0.8,2c-0.5,0.5-1.3,0.7-2.3,0.7h-7V0.3c0,2.2,0.5,3.8,1.4,4.9
			c0.9,1,2.3,1.6,4.2,1.8l2,0.1C2594.9,7.1,2595.6,7.4,2596.1,7.8z"/>
		<path class="st0" d="M2602.2-31c-0.8-0.8-1.2-1.7-1.2-3c0-1.2,0.4-2.2,1.2-2.9c0.8-0.7,1.9-1.1,3.2-1.1c1.3,0,2.4,0.4,3.2,1.1
			c0.8,0.7,1.2,1.7,1.2,2.9c0,1.2-0.4,2.2-1.2,3c-0.8,0.8-1.9,1.1-3.2,1.1S2603-30.3,2602.2-31z M2602.9,11.6c-0.7-0.6-1-1.4-1-2.5
			v-28.6c0-1.1,0.3-2,1-2.6c0.7-0.6,1.5-0.9,2.6-0.9c1,0,1.9,0.3,2.5,0.9c0.7,0.6,1,1.4,1,2.6V9.1c0,1.1-0.3,2-1,2.5
			c-0.7,0.6-1.5,0.8-2.5,0.8C2604.5,12.5,2603.6,12.2,2602.9,11.6z"/>
		<path class="st0" d="M2619.2,9.6c-0.8-0.5-1.4-1.1-1.8-1.6c-0.4-0.6-0.5-1.2-0.5-1.9c0-0.8,0.2-1.4,0.6-1.9c0.4-0.5,1-0.8,1.6-0.8
			c0.6,0,1.6,0.4,2.9,1.1c1.4,0.8,2.8,1.4,4.1,1.8c1.3,0.5,3,0.7,5,0.7c2.3,0,4-0.4,5.3-1.2c1.3-0.8,1.9-1.9,1.9-3.4
			c0-0.9-0.2-1.7-0.7-2.3c-0.5-0.6-1.4-1.1-2.6-1.5c-1.2-0.4-3-0.9-5.4-1.4c-4.1-0.9-7.1-2.1-8.9-3.6c-1.8-1.5-2.7-3.6-2.7-6.2
			c0-2,0.6-3.8,1.8-5.5c1.2-1.6,2.8-2.9,4.9-3.8c2.1-0.9,4.4-1.3,7.1-1.3c1.9,0,3.7,0.2,5.5,0.7c1.8,0.5,3.4,1.2,4.7,2.2
			c1.6,1,2.3,2.2,2.3,3.6c0,0.8-0.2,1.4-0.7,1.9c-0.4,0.5-1,0.8-1.6,0.8c-0.4,0-0.8-0.1-1.3-0.3c-0.4-0.2-1-0.5-1.7-0.9
			c-1.3-0.8-2.5-1.3-3.6-1.8c-1.1-0.4-2.5-0.6-4.1-0.6c-2,0-3.6,0.4-4.8,1.3c-1.2,0.8-1.8,2-1.8,3.5c0,1.3,0.6,2.3,1.7,3.1
			c1.1,0.7,3.2,1.4,6.2,2.1c3.1,0.7,5.6,1.4,7.4,2.3c1.8,0.8,3.1,1.9,3.8,3.1s1.2,2.8,1.2,4.8c0,3.1-1.3,5.5-3.8,7.4
			c-2.6,1.9-6,2.8-10.3,2.8C2626.1,12.6,2622.2,11.6,2619.2,9.6z"/>
		<path class="st0" d="M2671.7,7.8c0.4,0.4,0.7,1.1,0.7,1.9c0,0.9-0.4,1.7-1.1,2.2c-0.7,0.5-1.8,0.7-3.2,0.6l-1.9-0.1
			c-3.8-0.3-6.7-1.4-8.5-3.5c-1.9-2-2.8-5.1-2.8-9.1v-16.6h-4.2c-2.1,0-3.1-0.9-3.1-2.8c0-0.8,0.3-1.5,0.8-2
			c0.5-0.5,1.3-0.7,2.3-0.7h4.2v-7.3c0-1.1,0.3-1.9,1-2.5c0.6-0.6,1.5-0.9,2.6-0.9c1.1,0,1.9,0.3,2.6,0.9c0.7,0.6,1,1.5,1,2.5v7.3h7
			c1,0,1.8,0.2,2.3,0.7c0.5,0.5,0.8,1.2,0.8,2c0,0.9-0.3,1.6-0.8,2c-0.5,0.5-1.3,0.7-2.3,0.7h-7V0.3c0,2.2,0.5,3.8,1.4,4.9
			c0.9,1,2.3,1.6,4.2,1.8l2,0.1C2670.5,7.1,2671.2,7.4,2671.7,7.8z"/>
		<path class="st0" d="M2698.9-20.1c0,1-0.3,1.8-0.8,2.3c-0.5,0.5-1.4,0.8-2.7,0.9l-2.1,0.2c-3,0.3-5.2,1.3-6.6,3.1
			c-1.4,1.8-2.2,3.9-2.2,6.5V9.1c0,1.1-0.3,2-1,2.5c-0.7,0.6-1.5,0.8-2.5,0.8c-1,0-1.9-0.3-2.6-0.8c-0.7-0.6-1-1.4-1-2.5v-28.7
			c0-1.1,0.3-1.9,1-2.5c0.7-0.6,1.5-0.9,2.6-0.9c0.9,0,1.7,0.3,2.4,0.9c0.6,0.6,1,1.4,1,2.4v3.4c0.9-2.1,2.3-3.6,4.1-4.7
			c1.8-1.1,3.8-1.7,6.1-1.9l1-0.1C2697.8-23.1,2698.9-22.2,2698.9-20.1z"/>
		<path class="st0" d="M2731.1-22.4c0.5-0.3,1.1-0.5,1.7-0.5c0.9,0,1.7,0.3,2.4,0.9c0.7,0.6,1,1.3,1,2.2c0,0.5-0.1,0.9-0.3,1.3
			l-19.6,41.6c-0.3,0.7-0.7,1.2-1.2,1.5c-0.5,0.4-1.1,0.5-1.7,0.5c-0.8,0-1.6-0.3-2.3-0.8c-0.7-0.6-1-1.3-1-2.1
			c0-0.4,0.1-0.8,0.4-1.4l4.9-10.4l-13.6-28.9c-0.2-0.4-0.3-0.8-0.3-1.3c0-0.9,0.4-1.6,1.1-2.3c0.8-0.6,1.6-0.9,2.5-0.9
			c1.4,0,2.4,0.7,3,2L2719,3.3l10.9-24.2C2730.1-21.6,2730.6-22.1,2731.1-22.4z"/>
	</g>
	<g>
		<g>
			<g>
				<path class="st0" d="M2610.5-177.1c-7.1,0-10.2-7.9-13-14.9c-2.3-5.7-4.6-11.5-8.1-11.5c-3.5,0-5.8,5.9-8.1,11.6
					c-2.8,7-5.9,14.9-13,14.9c-9,0-18.6-20-22.3-28.6c-7.6-17.8-12.2-37-12.2-51.5c0-9.1,1.8-16.4,5.2-21.6
					c4.1-6.2,10.4-9.3,18.7-9.3c5.9,0,11.5,2.8,17,5.6c5.1,2.6,10,5,14.7,5c4.6,0,9.5-2.4,14.6-5c5.5-2.7,11.2-5.6,17.1-5.6
					c8.3,0,14.5,3.1,18.6,9.3c3.4,5.2,5.2,12.5,5.2,21.6c0,14.5-4.5,33.8-12.1,51.5C2629-197,2619.5-177.1,2610.5-177.1z
					 M2589.4-208.8c7.1,0,10.2,7.9,13,14.9c2.3,5.7,4.6,11.5,8.1,11.5c2.7,0,9.9-7.9,17.4-25.4c7.3-17.1,11.7-35.6,11.7-49.4
					c0-8.1-1.4-14.4-4.3-18.7c-3.1-4.7-7.7-6.9-14.2-6.9c-4.7,0-9.5,2.4-14.7,5c-5.5,2.7-11.1,5.6-17,5.6c-5.9,0-11.5-2.8-17-5.6
					c-5.1-2.6-10-5-14.7-5c-6.5,0-11.2,2.3-14.3,6.9c-2.9,4.3-4.3,10.6-4.3,18.7c0,13.8,4.4,32.3,11.8,49.4
					c7.5,17.5,14.7,25.4,17.4,25.4c3.5,0,5.8-5.9,8.1-11.6C2579.1-200.9,2582.3-208.8,2589.4-208.8z"/>
			</g>
		</g>
		<g>
			<path class="st1" d="M2589.4-208.8c7.1,0,10.2,7.9,13,14.9c2.3,5.7,4.6,11.5,8.1,11.5c2.7,0,9.9-7.9,17.4-25.4
				c7.3-17.1,11.7-35.6,11.7-49.4c0-8.1-1.4-14.4-4.3-18.7c-3.1-4.7-7.7-6.9-14.2-6.9c-4.7,0-9.5,2.4-14.7,5
				c-5.5,2.7-11.1,5.6-17,5.6c-5.9,0-11.5-2.8-17-5.6c-5.1-2.6-10-5-14.7-5c-6.5,0-11.2,2.3-14.3,6.9c-2.9,4.3-4.3,10.6-4.3,18.7
				c0,13.8,4.4,32.3,11.8,49.4c7.5,17.5,14.7,25.4,17.4,25.4c3.5,0,5.8-5.9,8.1-11.6C2579.1-200.9,2582.3-208.8,2589.4-208.8z"/>
		</g>
		<g>
			<g>
				<path class="st0" d="M2589.3-219.3c-17.3,0-23.3-11.5-23.5-12c-0.7-1.3-0.1-2.9,1.2-3.5c1.3-0.6,2.9-0.1,3.5,1.2
					c0.2,0.4,4.9,9.1,18.8,9.1c13.9,0,18.6-8.8,18.8-9.1c0.7-1.3,2.3-1.8,3.5-1.1c1.3,0.7,1.8,2.2,1.2,3.5
					C2612.6-230.9,2606.6-219.3,2589.3-219.3z"/>
			</g>
		</g>
		<g>
			<g>
				<g>
					<g>
						<path class="st0" d="M2589.3-317.3c-1.7,0-3.1-1.4-3.1-3.1v-15.3c0-1.7,1.4-3.1,3.1-3.1c1.7,0,3.1,1.4,3.1,3.1v15.3
							C2592.4-318.6,2591-317.3,2589.3-317.3z"/>
					</g>
				</g>
			</g>
			<g>
				<g>
					<g>
						<path class="st0" d="M2559.5-311.7c-1.2,0-2.4-0.7-2.8-2l-5.5-14.2c-0.6-1.6,0.2-3.3,1.7-4c1.6-0.6,3.3,0.2,4,1.7l5.5,14.2
							c0.6,1.6-0.2,3.3-1.7,4C2560.3-311.8,2559.9-311.7,2559.5-311.7z"/>
					</g>
				</g>
			</g>
			<g>
				<g>
					<g>
						<path class="st0" d="M2533.8-295.8c-0.8,0-1.7-0.3-2.3-1l-10.3-11.3c-1.1-1.2-1-3.2,0.2-4.3c1.2-1.1,3.2-1,4.3,0.2l10.3,11.3
							c1.1,1.2,1,3.2-0.2,4.3C2535.2-296,2534.5-295.8,2533.8-295.8z"/>
					</g>
				</g>
			</g>
			<g>
				<g>
					<g>
						<path class="st0" d="M2515.5-271.6c-0.5,0-0.9-0.1-1.4-0.3l-13.7-6.8c-1.5-0.8-2.1-2.6-1.4-4.1c0.8-1.5,2.6-2.1,4.1-1.4
							l13.7,6.8c1.5,0.8,2.1,2.6,1.4,4.1C2517.7-272.2,2516.6-271.6,2515.5-271.6z"/>
					</g>
				</g>
			</g>
			<g>
				<g>
					<g>
						<path class="st0" d="M2507.2-242.4c-0.1,0-0.2,0-0.3,0l-15.2-1.4c-1.7-0.2-2.9-1.6-2.8-3.3c0.2-1.7,1.6-2.9,3.3-2.8l15.2,1.4
							c1.7,0.2,2.9,1.6,2.8,3.3C2510.1-243.6,2508.8-242.4,2507.2-242.4z"/>
					</g>
				</g>
			</g>
			<g>
				<g>
					<g>
						<path class="st0" d="M2495.3-208c-1.3,0-2.6-0.9-2.9-2.2c-0.5-1.6,0.5-3.3,2.1-3.8l14.7-4.2c1.6-0.5,3.3,0.5,3.8,2.1
							c0.5,1.6-0.5,3.3-2.1,3.8l-14.7,4.2C2495.9-208.1,2495.6-208,2495.3-208z"/>
					</g>
				</g>
			</g>
			<g>
				<g>
					<g>
						<path class="st0" d="M2511.3-175.9c-0.9,0-1.8-0.4-2.4-1.2c-1-1.3-0.7-3.3,0.6-4.3l12.2-9.2c1.3-1,3.3-0.7,4.3,0.6
							c1,1.3,0.7,3.3-0.6,4.3l-12.2,9.2C2512.6-176.1,2512-175.9,2511.3-175.9z"/>
					</g>
				</g>
			</g>
			<g>
				<g>
					<g>
						<path class="st0" d="M2537.9-151.7c-0.5,0-1.1-0.1-1.6-0.5c-1.4-0.9-1.9-2.8-1-4.2l8-13c0.9-1.4,2.8-1.9,4.2-1
							c1.4,0.9,1.9,2.8,1,4.2l-8,13C2539.9-152.2,2538.9-151.7,2537.9-151.7z"/>
					</g>
				</g>
			</g>
			<g>
				<g>
					<g>
						<path class="st0" d="M2571.4-138.7c-0.2,0-0.4,0-0.6-0.1c-1.7-0.3-2.8-1.9-2.4-3.6l2.8-15c0.3-1.7,1.9-2.8,3.6-2.4
							c1.7,0.3,2.8,1.9,2.4,3.6l-2.8,15C2574.1-139.7,2572.8-138.7,2571.4-138.7z"/>
					</g>
				</g>
			</g>
			<g>
				<g>
					<g>
						<path class="st0" d="M2607.3-138.7c-1.4,0-2.7-1-3-2.5l-2.8-15c-0.3-1.7,0.8-3.3,2.4-3.6c1.7-0.3,3.3,0.8,3.6,2.4l2.8,15
							c0.3,1.7-0.8,3.3-2.4,3.6C2607.7-138.7,2607.5-138.7,2607.3-138.7z"/>
					</g>
				</g>
			</g>
			<g>
				<g>
					<g>
						<path class="st0" d="M2640.8-151.7c-1,0-2-0.5-2.6-1.4l-8-13c-0.9-1.4-0.4-3.3,1-4.2c1.4-0.9,3.3-0.4,4.2,1l8,13
							c0.9,1.4,0.4,3.3-1,4.2C2641.9-151.8,2641.4-151.7,2640.8-151.7z"/>
					</g>
				</g>
			</g>
			<g>
				<g>
					<g>
						<path class="st0" d="M2667.4-175.9c-0.6,0-1.3-0.2-1.8-0.6l-12.2-9.2c-1.3-1-1.6-2.9-0.6-4.3c1-1.3,2.9-1.6,4.3-0.6l12.2,9.2
							c1.3,1,1.6,2.9,0.6,4.3C2669.2-176.3,2668.3-175.9,2667.4-175.9z"/>
					</g>
				</g>
			</g>
			<g>
				<g>
					<g>
						<path class="st0" d="M2683.4-208c-0.3,0-0.6,0-0.8-0.1l-14.7-4.2c-1.6-0.5-2.6-2.2-2.1-3.8c0.5-1.6,2.2-2.6,3.8-2.1l14.7,4.2
							c1.6,0.5,2.6,2.2,2.1,3.8C2685.9-208.9,2684.7-208,2683.4-208z"/>
					</g>
				</g>
			</g>
			<g>
				<g>
					<g>
						<path class="st0" d="M2671.5-242.4c-1.6,0-2.9-1.2-3-2.8c-0.2-1.7,1.1-3.2,2.8-3.3l15.2-1.4c1.7-0.2,3.2,1.1,3.3,2.8
							c0.2,1.7-1.1,3.2-2.8,3.3l-15.2,1.4C2671.7-242.4,2671.6-242.4,2671.5-242.4z"/>
					</g>
				</g>
			</g>
			<g>
				<g>
					<g>
						<path class="st0" d="M2663.2-271.6c-1.1,0-2.2-0.6-2.7-1.7c-0.8-1.5-0.1-3.3,1.4-4.1l13.7-6.8c1.5-0.8,3.3-0.1,4.1,1.4
							c0.8,1.5,0.1,3.3-1.4,4.1l-13.7,6.8C2664.1-271.7,2663.7-271.6,2663.2-271.6z"/>
					</g>
				</g>
			</g>
			<g>
				<g>
					<g>
						<path class="st0" d="M2644.9-295.8c-0.7,0-1.5-0.3-2.1-0.8c-1.2-1.1-1.3-3.1-0.2-4.3l10.3-11.3c1.1-1.2,3.1-1.3,4.3-0.2
							s1.3,3.1,0.2,4.3l-10.3,11.3C2646.6-296.1,2645.8-295.8,2644.9-295.8z"/>
					</g>
				</g>
			</g>
			<g>
				<g>
					<g>
						<path class="st0" d="M2619.1-311.7c-0.4,0-0.7-0.1-1.1-0.2c-1.6-0.6-2.4-2.4-1.7-4l5.5-14.2c0.6-1.6,2.4-2.4,4-1.7
							c1.6,0.6,2.4,2.4,1.7,4l-5.5,14.2C2621.5-312.5,2620.4-311.7,2619.1-311.7z"/>
					</g>
				</g>
			</g>
		</g>
	</g>
</g>
<g>
	<g>
		<g>
			<g>
				<path class="st0" d="M1447.2-777.1c-2,0-3.7-1.6-3.7-3.7v-18.4c0-2,1.6-3.7,3.7-3.7c2,0,3.7,1.6,3.7,3.7v18.4
					C1450.9-778.8,1449.2-777.1,1447.2-777.1z"/>
			</g>
		</g>
		<g>
			<g>
				<path class="st0" d="M1411.3-770.4c-1.5,0-2.9-0.9-3.4-2.4l-6.7-17.2c-0.7-1.9,0.2-4,2.1-4.8c1.9-0.7,4,0.2,4.8,2.1l6.7,17.2
					c0.7,1.9-0.2,4-2.1,4.8C1412.2-770.5,1411.7-770.4,1411.3-770.4z"/>
			</g>
		</g>
		<g>
			<g>
				<path class="st0" d="M1380.2-751.2c-1,0-2-0.4-2.7-1.2l-12.4-13.6c-1.4-1.5-1.3-3.8,0.2-5.2c1.5-1.4,3.8-1.3,5.2,0.2l12.4,13.6
					c1.4,1.5,1.3,3.8-0.2,5.2C1382-751.5,1381.1-751.2,1380.2-751.2z"/>
			</g>
		</g>
		<g>
			<g>
				<path class="st0" d="M1358.2-722c-0.6,0-1.1-0.1-1.6-0.4l-16.5-8.2c-1.8-0.9-2.6-3.1-1.7-4.9c0.9-1.8,3.1-2.6,4.9-1.7l16.5,8.2
					c1.8,0.9,2.6,3.1,1.7,4.9C1360.9-722.8,1359.6-722,1358.2-722z"/>
			</g>
		</g>
		<g>
			<g>
				<path class="st0" d="M1348.2-686.9c-0.1,0-0.2,0-0.3,0l-18.3-1.7c-2-0.2-3.5-2-3.3-4c0.2-2,2-3.5,4-3.3l18.3,1.7
					c2,0.2,3.5,2,3.3,4C1351.7-688.3,1350.1-686.9,1348.2-686.9z"/>
			</g>
		</g>
		<g>
			<g>
				<path class="st0" d="M1333.9-645.5c-1.6,0-3.1-1.1-3.5-2.7c-0.6-2,0.6-4,2.5-4.5l17.7-5c2-0.6,4,0.6,4.5,2.5
					c0.6,2-0.6,4-2.5,4.5l-17.7,5C1334.6-645.5,1334.2-645.5,1333.9-645.5z"/>
			</g>
		</g>
		<g>
			<g>
				<path class="st0" d="M1353.2-606.7c-1.1,0-2.2-0.5-2.9-1.5c-1.2-1.6-0.9-3.9,0.7-5.2l14.7-11.1c1.6-1.2,3.9-0.9,5.2,0.7
					c1.2,1.6,0.9,3.9-0.7,5.2l-14.7,11.1C1354.7-607,1354-606.7,1353.2-606.7z"/>
			</g>
		</g>
		<g>
			<g>
				<path class="st0" d="M1385.2-577.6c-0.7,0-1.3-0.2-1.9-0.6c-1.7-1.1-2.3-3.3-1.2-5.1l9.7-15.7c1.1-1.7,3.3-2.3,5.1-1.2
					c1.7,1.1,2.3,3.3,1.2,5.1l-9.7,15.7C1387.6-578.2,1386.4-577.6,1385.2-577.6z"/>
			</g>
		</g>
		<g>
			<g>
				<path class="st0" d="M1425.6-561.9c-0.2,0-0.5,0-0.7-0.1c-2-0.4-3.3-2.3-2.9-4.3l3.4-18.1c0.4-2,2.3-3.3,4.3-2.9
					c2,0.4,3.3,2.3,2.9,4.3l-3.4,18.1C1428.9-563.2,1427.3-561.9,1425.6-561.9z"/>
			</g>
		</g>
		<g>
			<g>
				<path class="st0" d="M1468.9-561.9c-1.7,0-3.3-1.2-3.6-3l-3.4-18.1c-0.4-2,0.9-3.9,2.9-4.3c2-0.4,3.9,0.9,4.3,2.9l3.4,18.1
					c0.4,2-0.9,3.9-2.9,4.3C1469.3-561.9,1469.1-561.9,1468.9-561.9z"/>
			</g>
		</g>
		<g>
			<g>
				<path class="st0" d="M1509.2-577.6c-1.2,0-2.4-0.6-3.1-1.7l-9.7-15.7c-1.1-1.7-0.5-4,1.2-5.1c1.7-1.1,4-0.5,5.1,1.2l9.7,15.7
					c1.1,1.7,0.5,4-1.2,5.1C1510.6-577.7,1509.9-577.6,1509.2-577.6z"/>
			</g>
		</g>
		<g>
			<g>
				<path class="st0" d="M1541.2-606.7c-0.8,0-1.6-0.2-2.2-0.7l-14.7-11.1c-1.6-1.2-1.9-3.5-0.7-5.2c1.2-1.6,3.5-1.9,5.2-0.7
					l14.7,11.1c1.6,1.2,1.9,3.5,0.7,5.2C1543.4-607.2,1542.3-606.7,1541.2-606.7z"/>
			</g>
		</g>
		<g>
			<g>
				<path class="st0" d="M1560.5-645.5c-0.3,0-0.7,0-1-0.1l-17.7-5c-2-0.6-3.1-2.6-2.5-4.5c0.6-2,2.6-3.1,4.5-2.5l17.7,5
					c2,0.6,3.1,2.6,2.5,4.5C1563.6-646.5,1562.1-645.5,1560.5-645.5z"/>
			</g>
		</g>
		<g>
			<g>
				<path class="st0" d="M1546.2-686.9c-1.9,0-3.5-1.4-3.7-3.3c-0.2-2,1.3-3.8,3.3-4l18.3-1.7c2-0.2,3.8,1.3,4,3.3
					c0.2,2-1.3,3.8-3.3,4l-18.3,1.7C1546.4-686.9,1546.3-686.9,1546.2-686.9z"/>
			</g>
		</g>
		<g>
			<g>
				<path class="st0" d="M1536.2-722c-1.4,0-2.7-0.7-3.3-2c-0.9-1.8-0.2-4,1.7-4.9l16.5-8.2c1.8-0.9,4-0.2,4.9,1.7
					c0.9,1.8,0.2,4-1.7,4.9l-16.5,8.2C1537.3-722.2,1536.8-722,1536.2-722z"/>
			</g>
		</g>
		<g>
			<g>
				<path class="st0" d="M1514.2-751.2c-0.9,0-1.8-0.3-2.5-1c-1.5-1.4-1.6-3.7-0.2-5.2l12.4-13.6c1.4-1.5,3.7-1.6,5.2-0.2
					s1.6,3.7,0.2,5.2l-12.4,13.6C1516.2-751.6,1515.2-751.2,1514.2-751.2z"/>
			</g>
		</g>
		<g>
			<g>
				<path class="st0" d="M1483.1-770.4c-0.4,0-0.9-0.1-1.3-0.2c-1.9-0.7-2.8-2.9-2.1-4.8l6.7-17.2c0.7-1.9,2.9-2.8,4.8-2.1
					c1.9,0.7,2.8,2.9,2.1,4.8l-6.7,17.2C1486-771.3,1484.6-770.4,1483.1-770.4z"/>
			</g>
		</g>
	</g>
	<g>
		<g>
			<path class="st0" d="M1392.1-661c-2.9-0.9-5.2-2.1-6.9-3.7c-0.8-0.7-1.2-1.5-1.2-2.6c0-0.8,0.2-1.4,0.6-1.9
				c0.4-0.5,0.9-0.8,1.5-0.8c0.6,0,1.3,0.3,2.1,0.8c3.7,2.8,8,4.2,12.8,4.2c3.4,0,6-0.6,7.8-1.9c1.8-1.3,2.7-3.1,2.7-5.4
				c0-1.9-0.8-3.2-2.5-4.2c-1.7-0.9-4.4-1.8-8.1-2.7c-3.5-0.8-6.4-1.6-8.7-2.6c-2.3-1-4.1-2.3-5.3-3.9c-1.3-1.7-1.9-3.8-1.9-6.4
				c0-2.6,0.7-4.9,2.1-6.9c1.4-2,3.4-3.6,5.9-4.7c2.5-1.1,5.4-1.7,8.7-1.7c3,0,5.8,0.4,8.3,1.3c2.5,0.8,4.7,2.1,6.4,3.7
				c0.8,0.7,1.3,1.6,1.3,2.6c0,0.7-0.2,1.3-0.7,1.9c-0.4,0.5-1,0.8-1.5,0.8c-0.5,0-1.2-0.3-2.1-0.8c-1.9-1.5-3.8-2.5-5.5-3.2
				c-1.7-0.7-3.8-1-6.2-1c-3.2,0-5.8,0.7-7.6,2c-1.8,1.3-2.7,3.2-2.7,5.5c0,2,0.8,3.5,2.4,4.6c1.6,1,4.2,2,7.7,2.8
				c3.7,0.8,6.7,1.7,9,2.6c2.3,0.9,4.1,2.1,5.5,3.7c1.4,1.6,2.1,3.6,2.1,6.1c0,2.5-0.7,4.8-2.1,6.7c-1.4,2-3.4,3.5-5.9,4.6
				c-2.5,1.1-5.5,1.6-8.8,1.6C1398-659.6,1395-660.1,1392.1-661z"/>
		</g>
		<g>
			<path class="st0" d="M1461.6-683.1c0.5,0.5,0.7,1.1,0.7,1.9v14.8c0,1.4-0.2,2.5-0.6,3.1c-0.4,0.6-1.2,1.1-2.4,1.5
				c-1.7,0.7-3.7,1.2-6,1.6c-2.3,0.4-4.6,0.6-6.9,0.6c-4.5,0-8.4-0.9-11.7-2.7c-3.3-1.8-5.8-4.4-7.5-7.8c-1.7-3.4-2.6-7.5-2.6-12.3
				c0-4.7,0.9-8.7,2.6-12.1c1.7-3.4,4.2-6,7.4-7.9c3.2-1.8,7-2.7,11.3-2.7c2.9,0,5.7,0.4,8.2,1.3c2.5,0.9,4.6,2.1,6.4,3.8
				c0.8,0.7,1.3,1.5,1.3,2.5c0,0.8-0.2,1.4-0.6,1.9c-0.4,0.5-0.9,0.8-1.5,0.8c-0.4,0-0.7-0.1-1-0.2c-0.3-0.1-0.7-0.3-1.1-0.6
				c-2.1-1.5-3.9-2.6-5.6-3.2c-1.7-0.6-3.6-0.9-5.8-0.9c-4.8,0-8.5,1.5-11,4.5c-2.5,3-3.8,7.3-3.8,12.9c0,5.8,1.3,10.1,3.9,13.1
				s6.4,4.5,11.4,4.5c3.4,0,6.6-0.5,9.7-1.5v-12.4h-8.3c-0.8,0-1.5-0.2-2-0.7c-0.5-0.4-0.7-1-0.7-1.8s0.2-1.4,0.7-1.8
				c0.5-0.4,1.1-0.7,2-0.7h11.6C1460.4-683.8,1461.1-683.5,1461.6-683.1z"/>
		</g>
		<g>
			<path class="st0" d="M1473-661c-0.6-0.6-0.9-1.3-0.9-2.3v-38.2c0-1,0.3-1.7,0.9-2.3c0.6-0.6,1.4-0.9,2.4-0.9h12.4
				c7.2,0,12.8,1.9,16.7,5.8c4,3.9,5.9,9.4,5.9,16.4s-2,12.6-5.9,16.5c-4,3.9-9.5,5.8-16.7,5.8h-12.4
				C1474.4-660.1,1473.6-660.4,1473-661z M1487.4-665.6c11,0,16.4-5.6,16.4-16.9c0-11.2-5.5-16.8-16.4-16.8h-8.7v33.7H1487.4z"/>
		</g>
	</g>
</g>
<g>
	<g>
		<g>
			<path class="st0" d="M2293.2-513.1c-2,0-3.7-1.6-3.7-3.7v-18.4c0-2,1.6-3.7,3.7-3.7c2,0,3.7,1.6,3.7,3.7v18.4
				C2296.9-514.8,2295.2-513.1,2293.2-513.1z"/>
		</g>
	</g>
	<g>
		<g>
			<path class="st0" d="M2257.3-506.4c-1.5,0-2.9-0.9-3.4-2.4l-6.7-17.2c-0.7-1.9,0.2-4,2.1-4.8c1.9-0.7,4,0.2,4.8,2.1l6.7,17.2
				c0.7,1.9-0.2,4-2.1,4.8C2258.2-506.5,2257.7-506.4,2257.3-506.4z"/>
		</g>
	</g>
	<g>
		<g>
			<path class="st0" d="M2226.2-487.2c-1,0-2-0.4-2.7-1.2l-12.4-13.6c-1.4-1.5-1.3-3.8,0.2-5.2c1.5-1.4,3.8-1.3,5.2,0.2l12.4,13.6
				c1.4,1.5,1.3,3.8-0.2,5.2C2228-487.5,2227.1-487.2,2226.2-487.2z"/>
		</g>
	</g>
	<g>
		<g>
			<path class="st0" d="M2204.2-458c-0.6,0-1.1-0.1-1.6-0.4l-16.5-8.2c-1.8-0.9-2.6-3.1-1.7-4.9c0.9-1.8,3.1-2.6,4.9-1.7l16.5,8.2
				c1.8,0.9,2.6,3.1,1.7,4.9C2206.9-458.8,2205.6-458,2204.2-458z"/>
		</g>
	</g>
	<g>
		<g>
			<path class="st0" d="M2194.2-422.9c-0.1,0-0.2,0-0.3,0l-18.3-1.7c-2-0.2-3.5-2-3.3-4c0.2-2,2-3.5,4-3.3l18.3,1.7
				c2,0.2,3.5,2,3.3,4C2197.7-424.3,2196.1-422.9,2194.2-422.9z"/>
		</g>
	</g>
	<g>
		<g>
			<path class="st0" d="M2179.9-381.5c-1.6,0-3.1-1.1-3.5-2.7c-0.6-2,0.6-4,2.5-4.5l17.7-5c2-0.6,4,0.6,4.5,2.5c0.6,2-0.6,4-2.5,4.5
				l-17.7,5C2180.6-381.5,2180.2-381.5,2179.9-381.5z"/>
		</g>
	</g>
	<g>
		<g>
			<path class="st0" d="M2199.2-342.7c-1.1,0-2.2-0.5-2.9-1.5c-1.2-1.6-0.9-3.9,0.7-5.2l14.7-11.1c1.6-1.2,3.9-0.9,5.2,0.7
				c1.2,1.6,0.9,3.9-0.7,5.2l-14.7,11.1C2200.7-343,2200-342.7,2199.2-342.7z"/>
		</g>
	</g>
	<g>
		<g>
			<path class="st0" d="M2231.2-313.6c-0.7,0-1.3-0.2-1.9-0.6c-1.7-1.1-2.3-3.3-1.2-5.1l9.7-15.7c1.1-1.7,3.3-2.3,5.1-1.2
				c1.7,1.1,2.3,3.3,1.2,5.1l-9.7,15.7C2233.6-314.2,2232.4-313.6,2231.2-313.6z"/>
		</g>
	</g>
	<g>
		<g>
			<path class="st0" d="M2271.6-297.9c-0.2,0-0.5,0-0.7-0.1c-2-0.4-3.3-2.3-2.9-4.3l3.4-18.1c0.4-2,2.3-3.3,4.3-2.9
				c2,0.4,3.3,2.3,2.9,4.3l-3.4,18.1C2274.9-299.2,2273.3-297.9,2271.6-297.9z"/>
		</g>
	</g>
	<g>
		<g>
			<path class="st0" d="M2314.9-297.9c-1.7,0-3.3-1.2-3.6-3l-3.4-18.1c-0.4-2,0.9-3.9,2.9-4.3c2-0.4,3.9,0.9,4.3,2.9l3.4,18.1
				c0.4,2-0.9,3.9-2.9,4.3C2315.3-297.9,2315.1-297.9,2314.9-297.9z"/>
		</g>
	</g>
	<g>
		<g>
			<path class="st0" d="M2355.2-313.6c-1.2,0-2.4-0.6-3.1-1.7l-9.7-15.7c-1.1-1.7-0.5-4,1.2-5.1c1.7-1.1,4-0.5,5.1,1.2l9.7,15.7
				c1.1,1.7,0.5,4-1.2,5.1C2356.6-313.7,2355.9-313.6,2355.2-313.6z"/>
		</g>
	</g>
	<g>
		<g>
			<path class="st0" d="M2387.2-342.7c-0.8,0-1.6-0.2-2.2-0.7l-14.7-11.1c-1.6-1.2-1.9-3.5-0.7-5.2c1.2-1.6,3.5-1.9,5.2-0.7
				l14.7,11.1c1.6,1.2,1.9,3.5,0.7,5.2C2389.4-343.2,2388.3-342.7,2387.2-342.7z"/>
		</g>
	</g>
	<g>
		<g>
			<path class="st0" d="M2406.5-381.5c-0.3,0-0.7,0-1-0.1l-17.7-5c-2-0.6-3.1-2.6-2.5-4.5c0.6-2,2.6-3.1,4.5-2.5l17.7,5
				c2,0.6,3.1,2.6,2.5,4.5C2409.6-382.5,2408.1-381.5,2406.5-381.5z"/>
		</g>
	</g>
	<g>
		<g>
			<path class="st0" d="M2392.2-422.9c-1.9,0-3.5-1.4-3.7-3.3c-0.2-2,1.3-3.8,3.3-4l18.3-1.7c2-0.2,3.8,1.3,4,3.3
				c0.2,2-1.3,3.8-3.3,4l-18.3,1.7C2392.4-422.9,2392.3-422.9,2392.2-422.9z"/>
		</g>
	</g>
	<g>
		<g>
			<path class="st0" d="M2382.2-458c-1.4,0-2.7-0.7-3.3-2c-0.9-1.8-0.2-4,1.7-4.9l16.5-8.2c1.8-0.9,4-0.2,4.9,1.7
				c0.9,1.8,0.2,4-1.7,4.9l-16.5,8.2C2383.3-458.2,2382.8-458,2382.2-458z"/>
		</g>
	</g>
	<g>
		<g>
			<path class="st0" d="M2360.2-487.2c-0.9,0-1.8-0.3-2.5-1c-1.5-1.4-1.6-3.7-0.2-5.2l12.4-13.6c1.4-1.5,3.7-1.6,5.2-0.2
				c1.5,1.4,1.6,3.7,0.2,5.2l-12.4,13.6C2362.2-487.6,2361.2-487.2,2360.2-487.2z"/>
		</g>
	</g>
	<g>
		<g>
			<path class="st0" d="M2329.1-506.4c-0.4,0-0.9-0.1-1.3-0.2c-1.9-0.7-2.8-2.9-2.1-4.8l6.7-17.2c0.7-1.9,2.9-2.8,4.8-2.1
				c1.9,0.7,2.8,2.9,2.1,4.8l-6.7,17.2C2332-507.3,2330.6-506.4,2329.1-506.4z"/>
		</g>
	</g>
</g>
</svg>
